<svg width="200" height="200" viewBox="0 0 200 200" fill="none" xmlns="http://www.w3.org/2000/svg">
<path d="M187.5 100C187.505 102.122 186.961 104.209 185.921 106.059C184.88 107.908 183.379 109.457 181.562 110.555L69 179.414C67.1022 180.576 64.9287 181.211 62.7037 181.252C60.4788 181.293 58.2832 180.739 56.3438 179.648C54.4227 178.574 52.8225 177.008 51.7075 175.11C50.5926 173.213 50.0032 171.052 50 168.852V31.1484C50.0032 28.9475 50.5926 26.7872 51.7075 24.8896C52.8225 22.992 54.4227 21.4256 56.3438 20.3516C58.2832 19.2605 60.4788 18.707 62.7037 18.7482C64.9287 18.7894 67.1022 19.4238 69 20.5859L181.562 89.4453C183.379 90.5427 184.88 92.0915 185.921 93.9411C186.961 95.7906 187.505 97.8779 187.5 100Z" fill="#A3CB49"/>
</svg>
