<svg width="80" height="80" viewBox="0 0 80 80" fill="none" xmlns="http://www.w3.org/2000/svg">
<g id="Untitled-1-05">
<g id="n3s3cV_1_">
<g id="Group">
<path id="Vector" d="M74.16 39.3599C74.4799 58.2399 59.7599 73.5199 41.2799 74.2399C21.9199 74.9599 6.15995 59.8399 5.75995 40.7199C5.43995 21.5999 20.3199 6.39993 38.7999 5.75993C58 5.11993 73.7599 20.1599 74.16 39.3599ZM63.6 62.3199C71.4399 53.4399 74.0799 43.2799 71.3599 31.8399C68.4799 19.7599 58.3199 10.2399 45.6799 8.07993C35.0399 6.23993 25.76 9.19993 17.6799 16.3999C17.8399 16.5599 17.9199 16.7199 17.9999 16.7999C20.0799 18.8799 22.16 20.9599 24.24 23.0399C24.9599 23.7599 25.68 24.3999 26.32 25.1999C26.56 25.4399 26.6399 25.9199 26.5599 26.1599C26.4799 26.3999 26.08 26.7199 25.76 26.7199C25.44 26.7199 25.1199 26.4799 24.8799 26.2399C22.24 23.5999 19.5199 20.9599 16.8799 18.2399C16.7199 18.0799 16.5599 17.9199 16.2399 17.6799C7.83995 27.5199 5.51995 38.4799 9.35995 50.8799C13.9999 62.5599 22.4 69.9199 34.9599 71.9999C45.36 73.7599 54.4799 70.6399 62.4799 63.5199C62.16 63.2799 61.84 63.1199 61.6 62.8799C59.04 60.3199 56.4 57.6799 53.84 55.1199C53.68 54.9599 53.52 54.7999 53.44 54.6399C53.2 54.2399 53.2799 53.8399 53.6799 53.5199C53.9999 53.2799 54.4 53.1199 54.72 53.4399C55.04 53.7599 55.3599 53.9999 55.6799 54.3199C58.1599 56.7999 60.64 59.2799 63.04 61.7599C63.2 61.9199 63.36 62.0799 63.6 62.3199Z" fill="#4E4E4E" stroke="#4E4E4E" stroke-miterlimit="10"/>
<path id="Vector_2" d="M40.8801 51.28C40.8001 52.4 40.0001 52.56 39.2001 52.64C35.2801 53.36 31.3601 54 27.4401 54.72C26.9601 54.8 26.4801 54.8 26.0801 54.32C24.6401 52.64 23.2001 50.88 21.7601 49.2C20.4801 47.68 19.2001 46.16 17.9201 44.64C17.6001 44.24 17.5201 43.84 17.6801 43.36C19.1201 39.44 20.5601 35.44 21.9201 31.52C22.0801 30.96 22.4801 30.72 22.9601 30.64C27.1201 29.92 31.2001 29.2 35.3601 28.4C35.9201 28.32 36.2401 28.4 36.6401 28.88C37.2001 29.6 37.8401 30.32 38.4001 31.04C38.7201 31.44 38.8801 31.36 39.2801 31.12C41.6801 29.76 44.0801 28.32 46.4801 26.96C46.8801 26.72 47.2001 26.72 47.6801 26.96C51.3601 29.12 55.1201 31.2 58.8001 33.36C59.2801 33.68 59.3601 34.08 59.3601 34.56C59.3601 38.56 59.3601 42.56 59.3601 46.56C59.3601 47.52 59.0401 48 58.2401 48.48C54.8001 50.4 51.3601 52.4 47.9201 54.48C47.3601 54.8 46.8801 54.8 46.2401 54.48C44.5601 53.36 42.8001 52.32 40.8801 51.28ZM46.1601 52.24C46.1601 52 46.1601 51.92 46.1601 51.84C46.1601 48.48 46.1601 45.04 46.1601 41.68C46.1601 41.28 46.0001 41.12 45.6801 40.88C42.8801 39.28 40.0001 37.6 37.2001 36C37.0401 35.92 36.8801 35.84 36.7201 35.76C36.7201 35.84 36.6401 35.92 36.6401 36C36.6401 39.44 36.6401 42.88 36.6401 46.32C36.6401 46.56 36.8801 46.8 37.1201 46.96C38.8801 48 40.6401 49.04 42.4001 50.08C43.6801 50.8 44.8801 51.52 46.1601 52.24ZM56.6401 34.08C53.4401 32.24 50.4001 30.48 47.2801 28.72C47.1201 28.64 46.8801 28.64 46.7201 28.72C44.0001 30.32 41.2001 31.92 38.4801 33.52C38.1601 33.68 37.9201 33.84 37.5201 34.08C37.6801 34.16 37.7601 34.24 37.8401 34.32C40.8001 36 43.6801 37.68 46.6401 39.44C46.9601 39.6 47.2001 39.52 47.5201 39.36C50.3201 37.68 53.2001 36.08 56.0801 34.4C56.2401 34.4 56.4001 34.24 56.6401 34.08ZM26.6401 52.16C26.7201 52 26.8001 51.92 26.8001 51.76C27.9201 48.56 29.1201 45.36 30.2401 42.16C30.3201 41.92 30.2401 41.52 30.0801 41.36C28.9601 40 27.7601 38.56 26.6401 37.2C25.6001 35.92 24.4801 34.64 23.3601 33.28C23.2801 33.52 23.2001 33.6 23.1201 33.76C22.0001 36.8 20.8801 39.92 19.7601 42.96C19.6001 43.44 19.6001 43.76 19.9201 44.16C21.7601 46.4 23.6001 48.56 25.5201 50.8C25.8401 51.28 26.2401 51.68 26.6401 52.16ZM48.0001 52.24C48.2401 52.08 48.4001 52.08 48.5601 52C51.3601 50.4 54.2401 48.72 57.0401 47.12C57.4401 46.88 57.6001 46.64 57.5201 46.16C57.5201 42.88 57.5201 39.6 57.5201 36.4C57.5201 36.24 57.5201 36.08 57.5201 35.84C57.3601 35.92 57.2801 35.92 57.2001 36C54.2401 37.68 51.2801 39.36 48.4001 41.12C48.2401 41.2 48.0801 41.6 48.0801 41.84C48.0801 43.68 48.0801 45.52 48.0801 47.36C48.0001 48.88 48.0001 50.48 48.0001 52.24ZM37.2001 32.24C36.6401 31.6 36.1601 30.96 35.6801 30.4C35.5201 30.24 35.2801 30.16 35.1201 30.24C32.8801 30.64 30.6401 31.04 28.4001 31.44C27.2001 31.68 25.9201 31.92 24.6401 32.16C24.9601 32.48 25.1201 32.8 25.3601 33.04C27.2801 35.28 29.2001 37.52 31.0401 39.76C31.5201 40.4 32.0801 40.72 32.8801 40.4C33.3601 40.24 33.9201 40.16 34.4001 40.16C34.8001 40.16 34.9601 39.92 34.9601 39.52C34.9601 37.92 34.9601 36.32 34.9601 34.72C34.9601 33.92 35.2001 33.36 35.9201 33.04C36.3201 32.88 36.7201 32.56 37.2001 32.24ZM34.8801 41.84C34.0801 42 33.3601 42.08 32.6401 42.24C32.2401 42.32 32.0801 42.48 31.9201 42.88C30.8001 46 29.6801 49.12 28.5601 52.24C28.4801 52.4 28.4801 52.56 28.4801 52.64C28.5601 52.64 28.5601 52.72 28.5601 52.72C32.0001 52.08 35.4401 51.52 38.8801 50.88C39.0401 50.88 39.2001 50.72 39.2801 50.56C39.2801 50.48 39.1201 50.24 39.0401 50.16C37.9201 49.52 36.8001 48.8 35.6001 48.16C35.1201 47.92 34.8801 47.52 34.9601 47.04C34.9601 46.24 34.9601 45.36 34.9601 44.56C34.8801 43.68 34.8801 42.8 34.8801 41.84Z" fill="#4E4E4E" stroke="#4E4E4E" stroke-miterlimit="10"/>
</g>
</g>
</g>
</svg>
