<svg width="24" height="24" viewBox="0 0 24 24" fill="none" xmlns="http://www.w3.org/2000/svg">
<path fill-rule="evenodd" clip-rule="evenodd" d="M9.99997 2.25C9.66866 2.24984 9.34411 2.34373 9.06406 2.52075C8.78401 2.69777 8.55996 2.95066 8.41797 3.25C7.73397 3.256 7.20197 3.287 6.72597 3.473C6.15774 3.69527 5.66356 4.07301 5.29997 4.563C4.93297 5.056 4.75997 5.69 4.52397 6.561L4.47697 6.731L3.96397 9.695C3.77897 9.823 3.61797 9.975 3.47797 10.154C2.57697 11.307 3.00597 13.024 3.86397 16.455C4.40897 18.638 4.68197 19.729 5.49597 20.365C6.30997 21 7.43497 21 9.68497 21H14.315C16.565 21 17.69 21 18.504 20.365C19.318 19.729 19.59 18.638 20.136 16.455C20.994 13.023 21.423 11.308 20.522 10.154C20.3842 9.97656 20.22 9.8214 20.035 9.694L19.522 6.732L19.476 6.562C19.239 5.69 19.066 5.056 18.7 4.562C18.3362 4.07238 17.8421 3.695 17.274 3.473C16.798 3.287 16.265 3.256 15.582 3.251C15.4401 2.95147 15.2161 2.69838 14.9361 2.52117C14.656 2.34396 14.3314 2.24993 14 2.25H9.99997ZM18.418 9.146L18.056 7.058C17.773 6.018 17.67 5.691 17.496 5.457C17.3002 5.19311 17.034 4.98968 16.728 4.87C16.508 4.784 16.242 4.759 15.58 4.752C15.4378 5.05066 15.214 5.30293 14.9343 5.47956C14.6547 5.6562 14.3307 5.74996 14 5.75H9.99997C9.66922 5.74996 9.34524 5.6562 9.0656 5.47956C8.78596 5.30293 8.5621 5.05066 8.41997 4.752C7.75697 4.759 7.49197 4.784 7.27197 4.87C6.96594 4.98968 6.69978 5.19311 6.50397 5.457C6.32997 5.691 6.22697 6.017 5.94397 7.057L5.58197 9.146C6.57997 9 7.90997 9 9.68497 9H14.315C16.09 9 17.42 9 18.418 9.146ZM7.99997 12.25C8.19888 12.25 8.38965 12.329 8.5303 12.4697C8.67095 12.6103 8.74997 12.8011 8.74997 13V17C8.74997 17.1989 8.67095 17.3897 8.5303 17.5303C8.38965 17.671 8.19888 17.75 7.99997 17.75C7.80106 17.75 7.61029 17.671 7.46964 17.5303C7.32899 17.3897 7.24997 17.1989 7.24997 17V13C7.24997 12.8011 7.32899 12.6103 7.46964 12.4697C7.61029 12.329 7.80106 12.25 7.99997 12.25ZM16.75 13C16.75 12.8011 16.671 12.6103 16.5303 12.4697C16.3896 12.329 16.1989 12.25 16 12.25C15.8011 12.25 15.6103 12.329 15.4696 12.4697C15.329 12.6103 15.25 12.8011 15.25 13V17C15.25 17.1989 15.329 17.3897 15.4696 17.5303C15.6103 17.671 15.8011 17.75 16 17.75C16.1989 17.75 16.3896 17.671 16.5303 17.5303C16.671 17.3897 16.75 17.1989 16.75 17V13ZM12 12.25C12.1989 12.25 12.3896 12.329 12.5303 12.4697C12.671 12.6103 12.75 12.8011 12.75 13V17C12.75 17.1989 12.671 17.3897 12.5303 17.5303C12.3896 17.671 12.1989 17.75 12 17.75C11.8011 17.75 11.6103 17.671 11.4696 17.5303C11.329 17.3897 11.25 17.1989 11.25 17V13C11.25 12.8011 11.329 12.6103 11.4696 12.4697C11.6103 12.329 11.8011 12.25 12 12.25Z" fill="#4E4E4E"/>
</svg>
