<svg width="24" height="24" viewBox="0 0 24 24" fill="none" xmlns="http://www.w3.org/2000/svg">
<g id="bxs:offer">
<path id="Vector" d="M20.7491 12L21.8531 10.092C21.9858 9.86244 22.0219 9.58958 21.9535 9.33343C21.885 9.07727 21.7176 8.85878 21.4881 8.726L19.5781 7.622V5.422C19.5781 5.15678 19.4728 4.90243 19.2852 4.71489C19.0977 4.52735 18.8433 4.422 18.5781 4.422H16.3791L15.2761 2.513C15.1429 2.28391 14.9249 2.1165 14.6691 2.047C14.5423 2.01261 14.4099 2.00375 14.2796 2.02091C14.1493 2.03808 14.0237 2.08093 13.9101 2.147L12.0001 3.251L10.0901 2.146C9.86045 2.01339 9.58751 1.97746 9.33133 2.0461C9.07516 2.11474 8.85674 2.28232 8.72413 2.512L7.62013 4.422H5.42113C5.15592 4.422 4.90156 4.52735 4.71403 4.71489C4.52649 4.90243 4.42113 5.15678 4.42113 5.422V7.621L2.51113 8.725C2.39716 8.79055 2.29727 8.87798 2.2172 8.98226C2.13712 9.08654 2.07844 9.20561 2.04452 9.33264C2.0106 9.45966 2.00212 9.59214 2.01956 9.72246C2.037 9.85277 2.08001 9.97836 2.14613 10.092L3.25013 12L2.14613 13.908C2.01412 14.1378 1.9783 14.4104 2.04649 14.6665C2.11468 14.9226 2.28134 15.1413 2.51013 15.275L4.42013 16.379V18.578C4.42013 18.8432 4.52549 19.0976 4.71303 19.2851C4.90056 19.4726 5.15492 19.578 5.42013 19.578H7.62013L8.72413 21.488C8.81266 21.6393 8.93907 21.765 9.09091 21.8527C9.24275 21.9404 9.4148 21.987 9.59013 21.988C9.76413 21.988 9.93713 21.942 10.0911 21.853L11.9991 20.749L13.9091 21.853C14.1388 21.9854 14.4115 22.0213 14.6676 21.9529C14.9237 21.8845 15.1422 21.7173 15.2751 21.488L16.3781 19.578H18.5771C18.8424 19.578 19.0967 19.4726 19.2842 19.2851C19.4718 19.0976 19.5771 18.8432 19.5771 18.578V16.379L21.4871 15.275C21.6009 15.2092 21.7006 15.1217 21.7805 15.0174C21.8605 14.9131 21.919 14.7941 21.9529 14.6671C21.9868 14.5402 21.9954 14.4078 21.9781 14.2775C21.9608 14.1473 21.918 14.0217 21.8521 13.908L20.7491 12ZM9.49913 6.99C9.89709 6.99013 10.2787 7.14834 10.56 7.42984C10.8413 7.71133 10.9993 8.09304 10.9991 8.491C10.999 8.88895 10.8408 9.27056 10.5593 9.55186C10.2778 9.83317 9.89609 9.99113 9.49813 9.991C9.10018 9.99086 8.71857 9.83265 8.43727 9.55116C8.15596 9.26966 7.998 8.88795 7.99813 8.49C7.99827 8.09204 8.15648 7.71043 8.43797 7.42913C8.71946 7.14783 9.10117 6.98986 9.49913 6.99ZM9.79913 16.59L8.19913 15.391L14.1991 7.391L15.7991 8.59L9.79913 16.59ZM14.4991 16.99C14.3021 16.9899 14.107 16.9511 13.925 16.8756C13.7429 16.8001 13.5776 16.6895 13.4383 16.5502C13.299 16.4108 13.1885 16.2453 13.1132 16.0633C13.0378 15.8812 12.9991 15.686 12.9991 15.489C12.9992 15.2919 13.0381 15.0968 13.1135 14.9148C13.189 14.7328 13.2996 14.5674 13.439 14.4281C13.5784 14.2888 13.7438 14.1784 13.9259 14.103C14.108 14.0277 14.3031 13.9889 14.5001 13.989C14.8981 13.9891 15.2797 14.1473 15.561 14.4288C15.8423 14.7103 16.0003 15.092 16.0001 15.49C16 15.888 15.8418 16.2696 15.5603 16.5509C15.2788 16.8322 14.8971 16.9901 14.4991 16.99Z" fill="#96BD47"/>
</g>
</svg>
