<svg width="80" height="80" viewBox="0 0 80 80" fill="none" xmlns="http://www.w3.org/2000/svg">
<g id="Untitled-1-03" clip-path="url(#clip0_1909_58)">
<g id="_x39_QypDG_2_">
<g id="Group">
<path id="Vector" d="M14.8802 65.84C14.5602 68 14.4002 69.84 13.9202 71.68C13.4402 73.6 11.2002 73.92 11.3602 71.6C11.5202 69.52 11.8402 67.44 12.3202 65.44C13.0402 62.56 14.7202 62.08 17.1202 63.92C23.2002 68.56 29.9202 71.12 37.6002 71.76C56.0802 73.36 73.9202 59.2 76.6402 40.8C78.0802 30.96 75.7602 22.56 67.6802 16.4C62.3202 12.32 56.2402 11.6 49.9202 13.92C48.1602 14.56 47.1202 14.32 46.5602 12.72C46.0002 11.04 45.2002 9.35996 44.8802 7.59996C44.3202 4.71996 46.6402 2.55996 47.2802 6.31996C48.0802 11.2 48.1602 11.2 52.8002 10.32C64.2402 7.99996 76.3202 16 78.8802 28.56C81.8402 42.72 76.9602 54.8 66.4802 64.4C52.7202 77.04 32.0802 78 16.8002 67.2C16.3202 66.88 15.7602 66.48 14.8802 65.84Z" fill="#4E4E4E"/>
<path id="Vector_2" d="M39.0402 28.88C39.0402 25.68 38.4002 22.48 37.0402 19.6C36.0002 17.44 34.5602 15.44 33.5202 13.28C32.4002 11.12 31.6802 8.63996 32.1602 6.23996C32.2402 5.59996 32.6402 4.95996 33.2002 4.95996C33.6002 4.95996 33.9202 5.27996 34.0802 5.59996C35.2802 7.19996 35.5202 9.27996 36.1602 11.2C37.1202 14.4 39.1202 17.28 40.3202 20.4C42.8802 27.04 42.0002 34.56 39.4402 41.2C38.4002 44.08 36.9602 46.8 35.0402 49.12C33.0402 51.44 30.4002 53.2 27.4402 53.84C21.6802 54.96 15.3602 51.52 10.0802 54C7.84018 55.04 6.08018 57.12 5.04018 59.36C4.00018 61.68 3.68018 64.16 3.60018 66.72C3.52018 68.4 3.76018 71.6 2.32018 72.8C0.560183 74.32 0.0801832 71.2 0.000183189 69.84C-0.159817 66.4 0.880183 62.56 2.16018 59.44C4.00018 55.04 7.60018 50.96 12.3202 50.24C17.2002 49.44 22.2402 52.32 27.1202 51.2C31.5202 50.16 34.5602 46 36.4002 41.92C38.0802 37.76 39.1202 33.28 39.0402 28.88Z" fill="#4E4E4E"/>
</g>
</g>
</g>
<defs>
<clipPath id="clip0_1909_58">
<rect width="80" height="80" fill="white"/>
</clipPath>
</defs>
</svg>
