<svg width="60" height="60" viewBox="0 0 60 60" fill="none" xmlns="http://www.w3.org/2000/svg">
<path d="M7.5 33.75L5.625 30H18.75L17.25 26.25H5L3.125 22.5H22.625L21.125 18.75H2.775L0.625 15H10C10 13.6739 10.5268 12.4021 11.4645 11.4645C12.4021 10.5268 13.6739 10 15 10H45V20H52.5L60 30V42.5H55C55 44.4891 54.2098 46.3968 52.8033 47.8033C51.3968 49.2098 49.4891 50 47.5 50C45.5109 50 43.6032 49.2098 42.1967 47.8033C40.7902 46.3968 40 44.4891 40 42.5H30C30 44.4891 29.2098 46.3968 27.8033 47.8033C26.3968 49.2098 24.4891 50 22.5 50C20.5109 50 18.6032 49.2098 17.1967 47.8033C15.7902 46.3968 15 44.4891 15 42.5H10V33.75H7.5ZM47.5 46.25C48.4946 46.25 49.4484 45.8549 50.1516 45.1516C50.8549 44.4484 51.25 43.4946 51.25 42.5C51.25 41.5054 50.8549 40.5516 50.1516 39.8483C49.4484 39.1451 48.4946 38.75 47.5 38.75C46.5054 38.75 45.5516 39.1451 44.8484 39.8483C44.1451 40.5516 43.75 41.5054 43.75 42.5C43.75 43.4946 44.1451 44.4484 44.8484 45.1516C45.5516 45.8549 46.5054 46.25 47.5 46.25ZM51.25 23.75H45V30H56.15L51.25 23.75ZM22.5 46.25C23.4946 46.25 24.4484 45.8549 25.1517 45.1516C25.8549 44.4484 26.25 43.4946 26.25 42.5C26.25 41.5054 25.8549 40.5516 25.1517 39.8483C24.4484 39.1451 23.4946 38.75 22.5 38.75C21.5054 38.75 20.5516 39.1451 19.8483 39.8483C19.1451 40.5516 18.75 41.5054 18.75 42.5C18.75 43.4946 19.1451 44.4484 19.8483 45.1516C20.5516 45.8549 21.5054 46.25 22.5 46.25Z" fill="#6D8F3C"/>
</svg>
