<svg width="80" height="80" viewBox="0 0 80 80" fill="none" xmlns="http://www.w3.org/2000/svg">
<g id="Untitled-1-01">
<g id="V8IA3e_1_">
<g id="Group">
<path id="Vector" d="M25.5203 41.2C24.0803 39.36 23.0403 37.44 22.5603 35.36C22.0803 32.96 21.9203 30.56 21.6003 28.16C21.5203 27.6 21.7603 27.36 22.3203 27.36C23.8403 27.28 25.4403 27.2 26.9603 27.2C27.4403 27.2 27.8403 27.28 28.4003 27.28C28.3203 27.04 28.2403 26.96 28.1603 26.88C25.7603 23.52 25.2803 19.68 25.9203 15.68C26.0803 14.4 26.4803 13.2 26.7203 12C26.8003 11.52 27.0403 11.36 27.5203 11.52C29.0403 12 30.5603 12.48 32.0803 12.96C32.4003 13.04 32.7203 13.2 33.1203 13.44C32.8803 7.83999 35.7603 3.91999 39.5203 0.23999C43.1203 3.91999 46.1603 7.75999 45.8403 13.28C47.9203 12.64 49.9203 12 52.0003 11.28C53.6803 16.96 54.1603 22.32 50.4003 27.36C51.1203 27.28 51.6003 27.2 52.0803 27.2C53.6003 27.2 55.0403 27.28 56.5603 27.36C57.1203 27.36 57.2803 27.6 57.2803 28.16C57.2003 30.64 56.9603 33.04 56.2403 35.44C55.6003 37.52 54.7203 39.36 53.3603 41.2C54.7203 41.36 55.9203 41.52 57.2803 41.68C57.2003 42.72 57.2003 43.68 57.1203 44.64C56.8803 48.24 56.0803 51.76 53.7603 54.72C51.3603 57.84 48.2403 60 44.3203 60.72C43.3603 60.88 42.3203 60.72 41.2003 60.72C41.2003 64.4 41.2003 68.16 41.2003 71.92C40.2403 72 39.4403 72 38.6403 72.08C37.9203 72.16 37.6803 71.92 37.6803 71.2C37.6803 68 37.6803 64.88 37.6803 61.68C37.6803 61.36 37.6803 61.04 37.6803 60.64C35.6003 61.04 33.6803 60.72 31.8403 59.92C26.0003 57.36 22.5603 52.88 21.7603 46.56C21.6003 45.12 21.5203 43.68 21.4403 42.24C21.3603 41.68 21.6003 41.52 22.1603 41.52C23.3603 41.52 24.3203 41.36 25.5203 41.2ZM24.8003 44.4C24.8003 44.88 24.8003 45.12 24.8803 45.44C24.9603 46.08 25.1203 46.8 25.2003 47.44C26.1603 52.48 29.2803 55.68 34.0003 57.44C34.5603 57.68 35.2003 57.76 35.8403 57.76C37.6003 57.84 38.5603 56.88 38.1603 55.12C37.1203 50.24 34.4803 46.64 29.6803 44.96C28.1603 44.4 26.4803 44.24 24.8003 44.4ZM24.8803 30.16C24.8803 30.32 24.8003 30.48 24.8003 30.56C25.2003 35.76 27.2803 39.92 32.0803 42.48C33.3603 43.2 34.7203 43.76 36.2403 43.68C37.4403 43.6 38.0003 43.12 38.1603 42C38.2403 41.28 38.1603 40.56 38.0003 39.92C37.2803 37.2 35.7603 35.04 33.7603 33.12C31.2803 30.72 28.1603 30.16 24.8803 30.16ZM54.2403 30.24C46.5603 29.6 41.8403 35.44 40.8003 40.88C40.4803 42.8 41.3603 43.84 43.2803 43.68C45.2803 43.52 46.9603 42.56 48.5603 41.44C52.5603 38.8 53.8403 34.8 54.2403 30.24ZM54.1603 44.4C48.2403 43.68 41.7603 48.64 40.8003 54.56C40.4003 57.28 41.6003 58.48 44.2403 57.68C50.7203 55.68 53.9203 51.04 54.1603 44.4ZM29.3603 14.96C29.2003 15.04 29.1203 15.12 28.9603 15.2C28.8803 16.64 28.7203 18.08 28.8003 19.52C28.9603 23.6 31.1203 26.56 34.3203 28.8C35.8403 29.92 37.1203 29.28 37.2803 27.44C37.5203 23.36 36.3203 19.84 33.1203 17.2C32.0003 16.24 30.6403 15.68 29.3603 14.96ZM49.9203 15.12C44.8803 16.24 41.0403 22.16 41.7603 27.36C42.0003 29.2 43.0403 29.84 44.6403 28.72C45.8403 27.92 46.9603 26.8 47.9203 25.68C50.4003 22.56 50.6403 18.96 49.9203 15.12ZM39.5203 20.96C39.6803 20.56 39.8403 20.32 39.9203 20.08C40.5603 18.96 41.2803 17.84 41.8403 16.64C42.0803 16.16 42.4003 15.6 42.4803 15.12C42.9603 12.32 42.7203 9.59999 41.2003 7.03999C40.7203 6.23999 40.1603 5.35999 39.5203 4.47999C39.2003 4.71999 39.0403 4.87999 38.8803 5.03999C37.5203 7.03999 36.2403 9.11999 36.1603 11.6C36.0803 13.68 36.0803 15.76 37.6003 17.52C38.4803 18.48 38.8803 19.68 39.5203 20.96ZM37.2803 32.24C38.0003 33.2 38.7203 34.24 39.4403 35.2C40.2403 34.08 40.9603 33.12 41.6803 32.16C40.8803 31.52 40.1603 30.96 39.4403 30.48C38.8003 31.04 38.0803 31.68 37.2803 32.24ZM41.4403 46.8C40.1603 45.6 38.8803 45.76 37.6003 46.8C38.2403 47.68 38.8803 48.56 39.5203 49.44C40.1603 48.48 40.8003 47.6 41.4403 46.8Z" fill="#4E4E4E"/>
<path id="Vector_2" d="M71.9202 33.1199C69.8402 34.1599 67.9202 35.1199 65.9202 36.0799C64.5602 36.7199 63.2802 37.4399 61.9202 38.0799C61.6802 38.2399 61.3602 38.3199 61.1202 38.3199C60.3202 38.4799 59.6802 38.0799 59.3602 37.3599C59.1202 36.7199 59.4402 35.9199 60.1602 35.5999C61.8402 34.7199 63.4402 33.9199 65.1202 33.0399C66.9602 32.1599 68.8002 31.1999 70.7202 30.3199C70.4802 29.8399 70.3202 29.4399 70.0802 29.0399C67.3602 23.9999 63.6002 19.9199 58.8002 16.7999C58.3202 16.4799 58.0802 16.1599 58.1602 15.5199C58.2402 14.7199 58.1602 13.9199 58.2402 13.1199C58.2402 13.0399 58.3202 13.0399 58.4002 12.7999C59.7602 13.7599 61.2802 14.6399 62.5602 15.5999C69.5202 20.7999 74.2402 27.5999 76.0002 36.1599C78.8002 49.3599 75.1202 60.7199 65.2802 70.0799C60.8002 74.3999 55.3602 77.1999 49.2802 78.7199C32.6402 82.8799 15.5202 75.5199 7.44024 60.7999C4.24024 54.9599 2.72024 48.7199 3.20024 42.0799C4.16024 28.9599 10.5602 19.2799 21.8402 12.7199C21.9202 12.7199 21.9202 12.7199 22.1602 12.6399C22.1602 13.7599 22.1602 14.8799 22.1602 15.9999C22.1602 16.1599 21.8402 16.3999 21.6002 16.4799C14.0802 21.2799 9.04024 27.9999 6.96024 36.7999C5.12024 44.7199 6.32024 52.2399 10.0802 59.3599C10.1602 59.5199 10.3202 59.7599 10.4802 59.9999C12.4802 59.0399 14.4802 58.0799 16.4802 57.0399C17.7602 56.3999 19.1202 55.7599 20.4002 55.1199C21.4402 54.5599 22.3202 54.7999 22.8002 55.6799C23.2002 56.5599 22.8802 57.3599 21.8402 57.9199C18.8802 59.3599 15.9202 60.8799 12.9602 62.3199C12.7202 62.3999 12.4802 62.5599 12.0802 62.7999C13.6002 64.3999 14.8802 65.9999 16.4002 67.5199C19.2002 70.2399 22.4802 72.3199 26.0002 73.9999C29.4402 75.5999 33.1202 76.5599 36.8002 76.7999C40.7202 77.1199 44.5602 76.8799 48.4002 75.9199C56.8002 73.5999 63.4402 69.0399 68.3202 61.9999C71.7602 57.0399 73.5202 51.4399 73.9202 45.4399C74.1602 41.4399 73.6003 37.4399 72.2402 33.6799C72.0802 33.5199 72.0802 33.3599 71.9202 33.1199Z" fill="#4E4E4E"/>
</g>
</g>
</g>
</svg>
