<svg width="65" height="36" viewBox="0 0 65 36" fill="none" xmlns="http://www.w3.org/2000/svg">
<g id="Group 40">
<g id="Group 39">
<path id="Vector" d="M0 20.1413V18.8705C0.515005 17.7001 1.41022 17.2794 2.68311 17.3087C5.32553 17.3709 7.9705 17.3379 10.6142 17.3227C11.9786 17.315 12.9387 16.4077 12.9476 15.1724C12.9565 13.9156 12.0308 13.0273 10.6587 12.9942C9.96058 12.9764 9.25992 13.0057 8.56434 12.9853C7.23423 12.9472 6.32375 12.0563 6.3263 10.8249C6.32884 9.59348 7.24059 8.7039 8.57325 8.66451C9.24847 8.64417 9.92625 8.66451 10.6078 8.65434C10.9029 8.65683 11.1969 8.61833 11.4814 8.53997C11.9687 8.3818 12.3832 8.05462 12.65 7.61758C12.9168 7.18054 13.0183 6.6625 12.9362 6.15717C12.8535 5.65147 12.5941 5.19142 12.2042 4.85872C11.8142 4.52602 11.3189 4.34219 10.8062 4.33988C9.31841 4.32082 7.83698 4.35386 6.35809 4.32082C5.14369 4.29286 4.27772 3.33466 4.30061 2.12483C4.3235 0.856544 5.28611 0.012715 6.72431 0.0114441C14.3604 0.00890248 21.999 -0.0177849 29.6287 0.0203399C34.8932 0.0466037 40.1577 0.127089 45.4222 0.261797C47.6628 0.318984 49.4201 1.88464 49.9428 4.04378C50.0114 4.32717 50.0521 4.61819 50.117 4.96767C50.3866 4.96767 50.6358 4.96767 50.88 4.96767C52.2126 4.99055 53.5504 4.96767 54.8767 5.05027C57.4936 5.21167 59.6172 6.34779 60.969 8.60859C62.2406 10.7398 63.366 12.9637 64.5295 15.161C65.0381 16.1293 65.0674 17.1841 64.9021 18.2478C64.8398 18.643 64.7927 19.0421 64.7164 19.4348C64.3032 21.5863 63.9535 23.7556 63.4448 25.8817C63.1166 27.3185 62.3012 28.5977 61.1368 29.5023C60.3878 30.0843 59.5422 30.4007 58.5491 30.3143C58.5351 30.1606 58.5211 30.0602 58.516 29.9559C58.3316 26.235 55.337 23.5815 51.6251 23.9831C48.0455 24.3783 45.6193 26.3659 44.2841 29.6891C44.1455 30.0347 44.0526 30.3982 43.9458 30.7299H31.0898C31.0898 30.435 31.1038 30.1822 31.0898 29.9318C30.9105 27.3469 29.7202 25.4051 27.2749 24.4444C24.4456 23.3337 21.8782 24.0796 19.5651 25.8842C18.2919 26.8818 17.3446 28.2355 16.8438 29.7729C16.7752 29.9763 16.5031 30.2533 16.3238 30.2559C13.5262 30.2838 10.7388 30.294 7.94761 30.2559C6.86928 30.2432 6.00967 29.3104 5.96389 28.2391C5.94481 27.9484 5.98542 27.6569 6.08323 27.3824C6.18103 27.108 6.33397 26.8565 6.53263 26.6433C6.73129 26.4301 6.97148 26.2598 7.23843 26.1428C7.50538 26.0258 7.79346 25.9646 8.08494 25.963C8.99415 25.9389 9.90463 25.9732 10.8138 25.9516C11.3808 25.9492 11.9239 25.7229 12.3245 25.322C12.7252 24.9211 12.951 24.3781 12.9527 23.8115C12.9579 23.5264 12.9055 23.2431 12.7987 22.9787C12.6919 22.7142 12.5328 22.474 12.3311 22.2723C12.1293 22.0707 11.8889 21.9118 11.6243 21.805C11.3597 21.6983 11.0763 21.6459 10.7909 21.6511C8.14598 21.6358 5.50102 21.6041 2.8586 21.6638C1.55773 21.6981 0.583672 21.3321 0 20.1413ZM49.9034 7.91599C49.5219 10.9584 49.1467 13.88 48.7678 16.869C49.0399 16.8817 49.265 16.902 49.4914 16.9033C50.7384 16.9033 51.9863 16.9033 53.235 16.9033C55.3077 16.9033 57.3805 16.9198 59.4532 16.8957C60.7579 16.8804 61.4102 15.8155 60.7935 14.6806C59.9992 13.2175 59.1688 11.7742 58.3024 10.3509C57.575 9.14996 56.4751 8.33791 55.103 8.17143C53.3939 7.96428 51.6569 7.99097 49.9034 7.91599ZM29.0666 13.6144C30.4209 12.8786 30.9575 11.698 30.9435 10.253C30.9321 9.01271 30.2988 8.23116 29.0679 8.1028C27.837 7.97445 26.5819 7.99859 25.3395 8.01893C24.7953 8.02655 24.4608 8.41797 24.3833 8.9568C24.045 11.29 23.7068 13.6245 23.4105 15.9629C23.3787 16.217 23.5542 16.6491 23.7538 16.7432C23.9036 16.7974 24.0639 16.8161 24.2221 16.7978C24.3804 16.7795 24.5322 16.7247 24.6656 16.6377C24.9059 16.4394 25.0331 16.0455 25.1055 15.7125C25.2327 15.1216 25.2899 14.5129 25.3828 13.8647C25.8711 13.8647 26.3136 13.8914 26.7523 13.8571C27.1465 13.8266 27.3118 13.9982 27.4173 14.3502C27.6005 14.9538 27.8204 15.546 28.0315 16.1408C28.2642 16.7927 28.6292 17.0088 29.162 16.8219C29.6948 16.6351 29.9084 16.1243 29.7164 15.5321C29.5104 14.8954 29.2879 14.265 29.0666 13.6144ZM33.914 9.55917C34.2065 9.55917 34.457 9.55917 34.7075 9.55917C35.5735 9.55917 36.4407 9.57315 37.3054 9.53502C37.4183 9.53748 37.5303 9.5163 37.6345 9.47287C37.7386 9.42944 37.8325 9.36471 37.9101 9.28284C37.9877 9.20096 38.0474 9.10377 38.0851 8.9975C38.1229 8.89123 38.138 8.77823 38.1295 8.66578C38.1295 8.12695 37.7238 7.99097 37.247 7.99224C36.0008 7.99224 34.7546 7.98461 33.5084 7.99224C32.8001 7.99987 32.4199 8.28707 32.3182 8.96569C31.9731 11.2786 31.6484 13.5936 31.3441 15.9108C31.2576 16.5691 31.5412 16.855 32.2024 16.8613C33.4919 16.8741 34.78 16.8715 36.0682 16.8613C36.704 16.8613 37.1147 16.5093 37.0969 15.9946C37.0753 15.3427 36.6086 15.3059 36.1089 15.3097C35.1221 15.3173 34.1353 15.3097 33.09 15.3097C33.2057 14.504 33.31 13.7847 33.4194 13.0298C34.2536 13.0298 35.0331 13.0374 35.8113 13.0298C36.4713 13.0209 36.9112 12.6574 36.9163 12.1402C36.9163 11.6687 36.5946 11.454 35.8482 11.4502C35.1017 11.4463 34.3934 11.4502 33.6267 11.4502C33.7322 10.7614 33.825 10.1831 33.914 9.55917ZM40.5837 11.4654C40.6422 10.9927 40.7274 10.6038 40.7299 10.2136C40.7299 9.69007 40.9575 9.53502 41.4674 9.55409C42.3754 9.59094 43.2859 9.58077 44.1938 9.54646C44.7342 9.52613 45.1005 9.11946 45.0598 8.65688C45.0127 8.1028 44.6185 8.00368 44.1544 8.00495C42.9273 8.00495 41.7014 8.00495 40.4756 8.00495C39.7406 8.00495 39.3311 8.33536 39.2319 9.00509C38.8979 11.3197 38.5724 13.636 38.2553 15.954C38.1803 16.5093 38.4715 16.8626 39.031 16.8702C40.4052 16.8897 41.779 16.8897 43.1523 16.8702C43.2692 16.8732 43.3855 16.8524 43.494 16.8091C43.6026 16.7657 43.7012 16.7008 43.7839 16.6182C43.8665 16.5355 43.9315 16.437 43.9749 16.3285C44.0183 16.22 44.0391 16.1038 44.0361 15.987C43.9992 15.4329 43.6165 15.3147 43.146 15.3287C42.9349 15.3287 42.7225 15.3287 42.5102 15.3287H40.0191C40.1462 14.5027 40.2467 13.7859 40.3548 13.0412C41.2373 13.0412 42.0397 13.0565 42.8408 13.0412C43.4461 13.0273 43.8746 12.6193 43.8314 12.1186C43.7793 11.5175 43.3316 11.4654 42.8586 11.4667C42.1249 11.4603 41.3912 11.4591 40.5837 11.4591V11.4654ZM19.5588 9.71548C19.6505 9.69183 19.7441 9.67568 19.8385 9.66719C20.7045 9.66719 21.5704 9.67609 22.4364 9.65321C23.0201 9.63923 23.4639 9.2224 23.4308 8.72297C23.3914 8.12568 22.9794 7.98589 22.453 7.99097C21.3962 8.00241 20.3408 7.99097 19.2854 7.99097C18.413 7.99097 18.076 8.28199 17.94 9.16267C17.8039 10.0434 17.6857 10.9126 17.5712 11.7895C17.3779 13.1874 17.1668 14.5853 17.0104 15.9832C16.9837 16.2285 17.1261 16.6034 17.3156 16.7279C17.4408 16.7917 17.5794 16.825 17.72 16.825C17.8606 16.825 17.9991 16.7917 18.1244 16.7279C18.3875 16.5342 18.5729 16.253 18.647 15.9349C18.8263 15.0758 18.9217 14.2002 19.0526 13.3094C19.2218 13.3005 19.3451 13.289 19.4697 13.289C20.0598 13.289 20.6536 13.3107 21.2424 13.27C21.8019 13.2331 22.2444 12.7464 22.1859 12.2737C22.116 11.7081 21.7078 11.5938 21.2169 11.6001C20.5913 11.609 19.9657 11.6001 19.2815 11.6001C19.3833 10.9151 19.471 10.3166 19.5588 9.71548Z" fill="#4E4E4E"/>
<path id="Vector_2" d="M23.0392 35.986C20.337 35.967 18.4817 33.7074 18.9903 31.054C19.4901 28.4488 21.8159 26.465 24.3756 26.4612C27.018 26.4612 28.8568 28.5263 28.5389 31.1442C28.2159 33.8116 25.7248 36.0038 23.0392 35.986Z" fill="#4E4E4E"/>
<path id="Vector_3" d="M55.9983 30.5787C55.9919 33.7176 52.9464 36.3787 49.8462 35.9568C48.8194 35.8172 47.8851 35.2899 47.2352 34.4832C46.5853 33.6765 46.2692 32.6518 46.3518 31.6195C46.5603 28.7855 49.0552 26.4599 51.8808 26.4637C54.2638 26.4688 56.0033 28.2124 55.9983 30.5787Z" fill="#4E4E4E"/>
<path id="Vector_4" d="M0.686542 10.8452C0.689464 10.5603 0.749189 10.2788 0.862228 10.0172C0.975266 9.75565 1.13935 9.51921 1.34489 9.32173C1.55042 9.12425 1.79329 8.96969 2.05928 8.8671C2.32528 8.76451 2.60907 8.71594 2.89407 8.72424C3.17921 8.72647 3.46103 8.78565 3.72294 8.89832C3.98486 9.01098 4.22159 9.17485 4.41921 9.38028C4.61683 9.58572 4.77136 9.82857 4.8737 10.0946C4.97604 10.3605 5.02412 10.6443 5.01513 10.9291C4.99764 11.4936 4.76132 12.0292 4.35606 12.4229C3.9508 12.8165 3.40833 13.0373 2.84321 13.0387C2.267 13.031 1.71716 12.7962 1.31327 12.3854C0.909387 11.9747 0.684144 11.4211 0.686542 10.8452Z" fill="#4E4E4E"/>
<path id="Vector_5" d="M25.6016 12.2991C25.716 11.4349 25.7999 10.6622 25.936 9.89974C25.9602 9.7663 26.2005 9.58839 26.3531 9.57568C26.8573 9.54475 27.3629 9.54051 27.8676 9.56297C28.689 9.58457 29.0896 9.83493 29.1952 10.3687C29.3388 11.088 28.9637 11.8937 28.305 12.1478C28.0073 12.2462 27.6954 12.2952 27.3818 12.2927C26.821 12.3156 26.2552 12.2991 25.6016 12.2991Z" fill="#4E4E4E"/>
</g>
</g>
</svg>
