<svg width="226" height="225" viewBox="0 0 226 225" fill="none" xmlns="http://www.w3.org/2000/svg">
<g id="Frame" clip-path="url(#clip0_1027_97)">
<g id="Group">
<path id="Vector" d="M46.2208 34.0027C46.2077 34.0676 46.2338 34.1586 46.2598 34.2885C46.2859 34.4185 46.3119 34.5094 46.2859 34.6004C46.2598 34.6913 46.1947 34.7823 46.0515 34.8992C45.9473 34.9902 45.752 35.0941 45.4916 35.224C45.2182 35.354 45.0229 35.4709 44.8927 35.5878C44.7625 35.6918 44.6063 35.8737 44.411 36.1076C44.2157 36.3544 44.0595 36.5233 43.9423 36.6143C43.7991 36.7312 43.6428 36.7962 43.4736 36.8092C43.3043 36.8222 43.1741 36.7702 43.0699 36.6403C43.0048 36.5623 42.9788 36.4584 42.9918 36.3544C43.0048 36.2505 43.1741 36.0036 43.4736 35.6268C43.773 35.25 43.9162 34.8992 43.8772 34.5874C43.8381 34.2625 43.6949 33.9637 43.4605 33.6649L35.6095 24.089C35.1929 23.5693 34.7762 23.3094 34.3596 23.3094C34.1252 23.3094 33.8388 23.4004 33.5003 23.6083C33.1618 23.8162 32.9404 23.8941 32.8102 23.8811C32.6931 23.8551 32.5889 23.8032 32.4978 23.6992C32.4066 23.5953 32.4066 23.4653 32.4717 23.2964C32.5368 23.1275 32.628 22.9976 32.7451 22.9066C32.8753 22.8027 33.0706 22.6858 33.3571 22.5299C33.6435 22.3869 33.8518 22.257 33.969 22.166C34.0862 22.0751 34.2294 21.9192 34.3987 21.7113C34.5679 21.5034 34.7111 21.3605 34.8023 21.2825C34.9846 21.1266 35.1668 21.0746 35.3361 21.1006C35.5054 21.1266 35.7137 21.2825 35.935 21.5684L44.8797 32.4825C45.1922 32.8723 45.713 33.0152 46.4421 32.9373C47.1712 32.8463 47.7441 32.6384 48.1607 32.2876C48.6425 31.8978 48.994 31.2612 49.1893 30.4166C49.3976 29.5591 49.1112 28.6626 48.33 27.7141C47.7181 26.9735 46.9889 26.5187 46.1296 26.3368C45.2703 26.1679 44.5021 26.3498 43.8121 26.9085C43.5517 27.1164 43.3434 27.4152 43.1871 27.779C43.0309 28.1428 42.9007 28.3637 42.8226 28.4417C42.7444 28.5066 42.6403 28.5326 42.5101 28.5326C42.3799 28.5326 42.2887 28.4936 42.2367 28.4417C42.0023 28.1558 42.0414 27.7141 42.3538 27.1164C42.6533 26.5187 42.9918 26.064 43.3694 25.7651C44.385 24.9336 45.5437 24.6087 46.8197 24.7776C48.0956 24.9466 49.1763 25.5702 50.0356 26.6226C50.8298 27.5841 51.1163 28.6755 50.921 29.8839C50.7257 31.0922 50.1137 32.1057 49.1112 32.9243C48.6034 33.34 47.7832 33.6649 46.6634 33.8987L46.2208 34.0027Z" fill="#8CAD40"/>
<path id="Vector_2" d="M58.9673 22.7899C59.2798 23.2706 59.8266 23.4005 60.5948 23.1667C60.7901 23.1147 60.9463 23.0887 61.0635 23.1017C61.1807 23.1147 61.2978 23.2057 61.402 23.3746C61.4541 23.4655 61.4541 23.5695 61.389 23.7124C61.3239 23.8423 61.2327 23.9463 61.1156 24.0242C60.9854 24.1022 60.7901 24.1931 60.5297 24.2711C60.2693 24.349 60.074 24.44 59.9438 24.5309C59.7875 24.6349 59.6183 24.7908 59.41 24.9987C59.2147 25.2066 59.0714 25.3495 58.9933 25.4015C58.9022 25.4664 58.785 25.4924 58.6548 25.4794C58.5246 25.4664 58.4335 25.4275 58.3814 25.3625C58.3163 25.2586 58.2382 25.2196 58.1731 25.2715C58.121 25.2975 58.0819 25.3625 58.0429 25.4664C57.5872 26.4279 56.9101 27.2075 56.0378 27.7792C55.6212 28.052 55.0873 28.2469 54.4233 28.3639C53.7723 28.4808 53.1343 28.4159 52.5354 28.169C51.9365 27.9221 51.4157 27.4674 50.9861 26.8047C50.5304 26.1031 50.4653 25.2715 50.7777 24.2971C51.1032 23.3226 51.7933 22.491 52.8479 21.8024C53.1994 21.5685 53.6682 21.4126 54.215 21.3347C54.7749 21.2567 55.1134 21.3217 55.2566 21.5296C55.3217 21.6335 55.3347 21.7374 55.2826 21.8544C55.2306 21.9713 55.1524 22.0753 55.0222 22.1532C54.9311 22.2052 54.7228 22.2572 54.3843 22.3091C54.0457 22.3611 53.7463 22.4651 53.4729 22.634C52.913 22.9978 52.5615 23.4525 52.4182 24.0112C52.262 24.5699 52.3662 25.1286 52.7177 25.6743C53.1343 26.311 53.6551 26.6618 54.2931 26.7268C54.9311 26.7917 55.53 26.6488 56.0769 26.298C56.5716 25.9732 56.9231 25.5184 57.1184 24.9337C57.3137 24.349 57.2486 23.7773 56.8971 23.2316L55.1134 20.4901C54.84 20.0743 54.4884 19.8275 54.0588 19.7495C53.6161 19.6716 53.1734 19.7755 52.7177 20.0743C52.1318 20.4511 51.6891 21.0098 51.3767 21.7374C51.2725 21.9843 51.1814 22.1402 51.1163 22.1792C50.96 22.2831 50.7908 22.3351 50.6215 22.3221C50.4522 22.3091 50.322 22.2442 50.2309 22.1012C50.0226 21.7764 50.1398 21.2957 50.5955 20.672C51.0512 20.0484 51.6371 19.5026 52.3531 19.0479C53.2385 18.4762 54.0978 18.2423 54.9311 18.3333C55.7644 18.4242 56.3763 18.775 56.7669 19.3987L58.9673 22.7899Z" fill="#8CAD40"/>
<path id="Vector_3" d="M68.9015 17.9954C69.0968 17.8914 69.2921 18.0084 69.4613 18.3462C69.5655 18.5541 69.3572 19.0218 68.7973 19.7234C68.2505 20.4381 67.5734 20.9968 66.7792 21.3995C65.4772 22.0752 64.1492 22.2441 62.8212 21.9323C61.4801 21.6204 60.5036 20.8668 59.8787 19.6715C59.3318 18.606 59.2928 17.4497 59.7485 16.1893C60.2172 14.929 61.0505 13.9805 62.2743 13.3569C62.9384 13.0191 63.7456 12.7722 64.7221 12.6033C65.6986 12.4344 66.2454 12.4733 66.3626 12.6942C66.5709 13.097 66.7532 13.4088 66.9225 13.6297C67.0917 13.8506 67.1959 13.9935 67.2089 14.0195C67.3781 14.3443 67.3131 14.5782 67.0136 14.7341C66.7923 14.8511 66.5058 14.7211 66.1543 14.3573C65.8027 13.9935 65.3731 13.7856 64.8393 13.7337C64.3054 13.6817 63.7456 13.8116 63.1597 14.1105C62.4176 14.4873 61.8837 15.1109 61.5192 15.9815C61.1546 16.852 61.2458 17.7875 61.7666 18.788C62.2353 19.7105 62.9774 20.2692 63.993 20.49C65.0085 20.7109 65.8939 20.62 66.6621 20.2302C66.9355 20.0873 67.2089 19.9053 67.4823 19.6715C67.7427 19.4506 68.0031 19.1258 68.2635 18.71C68.5369 18.3202 68.7452 18.0733 68.9015 17.9954Z" fill="#8CAD40"/>
<path id="Vector_4" d="M78.6795 14.2014C78.9138 14.3314 79.1612 14.3444 79.4086 14.2404C79.5518 14.1884 79.669 14.0065 79.7861 13.7077C79.8903 13.4089 80.0075 13.24 80.1247 13.188C80.2418 13.149 80.359 13.162 80.4892 13.227C80.6194 13.3049 80.7106 13.3959 80.7496 13.5128C80.8928 13.8896 80.8408 14.3444 80.5673 14.8771C80.2939 15.4098 79.9684 15.7476 79.5908 15.8905C79.2393 16.0205 78.7706 16.0205 78.1717 15.8645C77.5728 15.7086 76.6093 15.2669 75.2812 14.5522C74.3178 14.0325 73.7709 13.7987 73.6277 13.8506C73.5756 13.8766 73.4975 13.9806 73.4064 14.1884C73.3152 14.3963 73.2111 14.6042 73.1069 14.8251C73.0028 15.046 72.9507 15.2149 72.9637 15.3058C72.9767 15.3968 73.0679 15.6696 73.2501 16.1114C73.3283 16.3193 73.4454 16.4622 73.6017 16.5662C73.7579 16.6701 74.0183 16.6831 74.3829 16.5921C74.7474 16.5012 74.9948 16.4882 75.112 16.5532C75.2292 16.6181 75.3073 16.7221 75.3594 16.852C75.3984 16.9689 75.3984 17.0729 75.3594 17.1638C75.3203 17.2548 75.1771 17.3457 74.9427 17.4367C74.7214 17.5276 74.3699 17.6316 73.9011 17.7355C73.4324 17.8525 73.0939 17.9564 72.8595 18.0344C72.6512 18.1123 72.3518 18.2682 71.9612 18.4761C71.5706 18.684 71.2841 18.8399 71.0628 18.9179C70.5941 19.0998 70.2946 19.0478 70.1774 18.762C70.1254 18.6321 70.1123 18.5021 70.1644 18.3852C70.2035 18.2682 70.4118 18.1123 70.7764 17.9304C71.1409 17.7485 71.3362 17.5276 71.3753 17.3068C71.4143 17.0729 71.3883 16.839 71.2841 16.5792L66.5188 4.35273C66.4798 4.17083 66.3496 4.01491 66.1803 3.89798C66.0111 3.79403 65.7246 3.76805 65.308 3.82002C64.8913 3.87199 64.6309 3.87199 64.5138 3.82002C64.3966 3.75505 64.3054 3.6641 64.2664 3.53417C64.2273 3.41723 64.2534 3.3003 64.3445 3.17037C64.4487 3.04044 64.5528 2.96248 64.683 2.91051C64.8132 2.85853 65.0215 2.81956 65.308 2.78058C65.5944 2.7416 65.8158 2.70262 65.959 2.63765C66.1282 2.57269 66.3235 2.46874 66.5449 2.31283C66.7662 2.1699 66.9225 2.07895 67.0136 2.03997C67.1698 1.988 67.287 1.97501 67.3912 2.02698C67.5214 2.07895 67.6646 2.26086 67.8338 2.5467C68.0031 2.83255 68.2765 3.46921 68.6671 4.45668L72.1174 13.3049C72.1955 13.4868 72.2997 13.5648 72.4299 13.5128C72.521 13.4738 72.7163 13.097 73.0288 12.3694L73.9272 10.2775C73.9793 10.1736 73.9923 10.0956 73.9793 10.0437C73.9662 10.0047 73.8491 9.97871 73.6407 9.97871C73.4324 9.97871 73.3022 9.90075 73.2371 9.74483C73.172 9.58892 73.159 9.45898 73.2111 9.35504C73.2632 9.2511 73.3934 9.16015 73.6277 9.06919C73.784 9.01722 74.0053 8.93926 74.3308 8.86131C74.6433 8.78335 74.8907 8.70539 75.0469 8.64043C75.2552 8.56247 75.5547 8.41954 75.9453 8.21166C76.3359 8.00377 76.6353 7.86084 76.8436 7.78289C77.065 7.70493 77.2733 7.66595 77.4686 7.70493C77.6639 7.74391 77.7941 7.82187 77.8592 7.99078C77.9764 8.28961 77.755 8.53648 77.1952 8.75736C76.3749 9.06919 75.8411 9.35504 75.5807 9.6149C75.3203 9.87476 75.0729 10.2646 74.8386 10.7973C74.6042 11.33 74.474 11.6418 74.448 11.7198C74.4219 11.7977 74.435 11.8757 74.474 11.9796C74.5521 12.1615 74.7084 12.3174 74.9427 12.4344L78.6795 14.2014Z" fill="#8CAD40"/>
<path id="Vector_5" d="M88.0278 10.2905C88.184 10.9402 88.3272 11.3559 88.4314 11.5249C88.5355 11.6938 88.6657 11.7587 88.822 11.7198C89.0824 11.6548 89.3558 11.4339 89.6553 11.0701C89.9547 10.7063 90.1761 10.4984 90.3062 10.4724C90.4104 10.4464 90.5146 10.4724 90.6187 10.5504C90.7229 10.6283 90.788 10.7323 90.827 10.8622C90.8791 11.0831 90.6578 11.5249 90.1761 12.1745C89.6943 12.8242 89.1996 13.201 88.7308 13.3179C87.4939 13.6167 86.6607 12.8631 86.205 11.0571L85.0983 6.56153C85.0592 6.4186 85.0202 6.34064 84.9811 6.34064C84.942 6.34064 84.7207 6.39262 84.3171 6.48357C84.0046 6.56153 83.7833 6.56153 83.6531 6.49656C83.5229 6.4316 83.4317 6.31466 83.3927 6.14575C83.3536 5.98983 83.3666 5.8729 83.4317 5.79494C83.4968 5.71698 83.64 5.61304 83.8614 5.48311C84.0827 5.35318 84.252 5.23624 84.3561 5.1193C84.4603 5.00236 84.6035 4.76849 84.7598 4.43067C84.916 4.09285 84.9811 3.65109 84.9551 3.10538C84.929 2.55968 84.7988 1.81908 84.5514 0.844599C84.4343 0.389844 84.5124 0.116991 84.7598 0.0650188C85.0462 5.37299e-05 85.2415 0.0130467 85.3457 0.129984C85.4498 0.246921 85.541 0.454809 85.6061 0.753648L86.5695 4.66455C86.6086 4.82046 86.7258 4.87243 86.9341 4.82046L88.6006 4.41768C88.9392 4.33972 89.1475 4.44366 89.2126 4.72951C89.2907 5.06733 89.0954 5.3012 88.6137 5.41814L87.1424 5.78194C87.0382 5.80793 86.9731 5.84691 86.9601 5.88589C86.9471 5.92487 86.9601 6.01582 86.9862 6.15874L88.0278 10.2905Z" fill="#8CAD40"/>
<path id="Vector_6" d="M95.6184 2.63774C96.9334 2.42985 98.1573 2.7027 99.29 3.4563C100.423 4.20989 101.074 5.17137 101.256 6.35374C101.464 7.67902 101.165 8.8354 100.358 9.80988C99.5504 10.7844 98.3526 11.408 96.7772 11.6419C95.5403 11.8368 94.3555 11.5899 93.2357 10.8883C92.116 10.1867 91.452 9.2122 91.2567 7.95188C91.0614 6.74353 91.3348 5.61314 92.0639 4.57369C92.78 3.54725 93.9649 2.8976 95.6184 2.63774ZM96.8683 10.5765C97.7797 10.4335 98.4567 9.99178 98.8994 9.25118C99.3421 8.51058 99.4853 7.62705 99.3291 6.62659C99.1728 5.63912 98.7562 4.87253 98.0661 4.32683C97.3891 3.76813 96.5949 3.56024 95.6965 3.70316C94.7721 3.84609 94.1081 4.27486 93.6914 4.97648C93.2748 5.6781 93.1446 6.52265 93.3008 7.51012C93.4701 8.60153 93.8867 9.42009 94.5508 9.9658C95.2278 10.4985 95.996 10.7064 96.8683 10.5765Z" fill="#8CAD40"/>
<path id="Vector_7" d="M110.995 1.33824C112.336 1.31226 113.508 1.75402 114.51 2.65054C115.513 3.54705 116.034 4.59949 116.06 5.79484C116.086 7.14612 115.63 8.23753 114.693 9.09507C113.755 9.95261 112.492 10.3944 110.891 10.4204C109.641 10.4463 108.495 10.0306 107.48 9.18602C106.464 8.34148 105.943 7.28904 105.917 6.00273C105.891 4.78139 106.321 3.70297 107.18 2.76747C108.039 1.83198 109.328 1.36423 110.995 1.33824ZM111.138 9.36792C112.063 9.35493 112.792 9.00412 113.339 8.32848C113.885 7.65285 114.146 6.8083 114.12 5.78185C114.107 4.78139 113.794 3.96283 113.195 3.32617C112.596 2.68951 111.841 2.39068 110.93 2.40367C109.992 2.41666 109.276 2.74149 108.769 3.39114C108.261 4.04079 108.013 4.84635 108.039 5.84682C108.052 6.95122 108.352 7.80876 108.938 8.44542C109.524 9.06908 110.253 9.38092 111.138 9.36792Z" fill="#8CAD40"/>
<path id="Vector_8" d="M120.096 8.2246C120.057 8.61439 120.187 8.95221 120.46 9.23805C120.734 9.5239 121.085 9.67981 121.489 9.71879C121.749 9.74478 122.049 9.66682 122.413 9.49791C122.778 9.329 123.038 9.25105 123.195 9.26404C123.351 9.27703 123.429 9.38098 123.403 9.57587C123.377 9.80974 123.064 10.0696 122.426 10.3555C121.801 10.6413 121.111 10.7582 120.356 10.6933C119.796 10.6283 119.302 10.3944 118.898 10.0046C118.494 9.60186 118.273 9.18608 118.247 8.74432C118.221 8.30256 118.325 6.65244 118.586 3.79398C118.625 3.40419 118.247 3.09236 117.479 2.84549C117.14 2.74155 116.984 2.59862 116.997 2.39073C117.01 2.2608 117.075 2.16985 117.192 2.10489C117.31 2.03992 117.44 2.01394 117.609 2.02693C117.661 2.02693 117.895 2.0789 118.312 2.18285C118.729 2.28679 119.08 2.35176 119.367 2.37774C119.471 2.39073 119.627 2.37774 119.835 2.32577C120.044 2.2738 120.174 2.2608 120.226 2.2738C120.486 2.29978 120.578 2.85848 120.473 3.9369L120.096 8.2246ZM124.418 4.46962C124.471 3.89792 124.197 3.54711 123.572 3.3912C123.195 3.30025 122.973 3.20929 122.882 3.11834C122.791 3.02739 122.752 2.91045 122.765 2.78052C122.791 2.48169 123.038 2.35176 123.494 2.39073C123.611 2.40373 123.859 2.46869 124.21 2.58563C124.575 2.70257 124.952 2.78052 125.382 2.8195C125.499 2.8325 125.642 2.8195 125.812 2.80651C125.981 2.79352 126.085 2.78052 126.124 2.78052C126.345 2.80651 126.424 3.05338 126.384 3.54711C126.059 7.22413 125.916 9.19907 125.955 9.43295C125.994 9.67981 126.306 9.8877 126.879 10.0826C127.179 10.1865 127.361 10.2775 127.426 10.3555C127.491 10.4334 127.517 10.5114 127.517 10.6023C127.504 10.7063 127.439 10.7972 127.296 10.8752C127.153 10.9531 126.983 10.9791 126.775 10.9661C126.684 10.9531 126.476 10.9142 126.124 10.8232C125.786 10.7322 125.538 10.6803 125.395 10.6673C125.239 10.6543 125.056 10.6673 124.835 10.7063C124.614 10.7452 124.471 10.7582 124.392 10.7582C124.21 10.7452 124.093 10.6803 124.041 10.5763C123.989 10.4724 123.963 10.2385 123.976 9.86172C123.989 9.48492 124.041 8.75731 124.145 7.69188L124.418 4.46962Z" fill="#8CAD40"/>
<path id="Vector_9" d="M132.595 6.00283L132.582 6.34065C132.621 6.35364 132.881 6.00283 133.35 5.3142C133.819 4.62557 134.249 4.15783 134.639 3.89796C135.03 3.6381 135.394 3.54715 135.746 3.61212C136.019 3.66409 136.215 3.74205 136.332 3.87198C136.449 4.00191 136.501 4.11885 136.475 4.23578C136.436 4.44367 136.358 4.59959 136.241 4.70353C136.123 4.80748 135.928 4.93741 135.655 5.06734C134.509 5.63903 133.611 6.4446 132.96 7.44506C132.309 8.45851 131.918 9.31605 131.788 10.0437C131.723 10.3815 131.723 10.6154 131.801 10.7583C131.866 10.9012 132.074 11.0441 132.4 11.187C132.725 11.33 132.947 11.4599 133.025 11.5768C133.116 11.6938 133.142 11.8107 133.116 11.9406C133.077 12.1745 132.907 12.2655 132.634 12.2135C132.413 12.1745 132.113 12.0836 131.736 11.9406C131.358 11.7977 130.941 11.6808 130.486 11.6028C130.186 11.5508 129.874 11.5249 129.548 11.5379C129.223 11.5508 129.014 11.5508 128.936 11.5379C128.715 11.4989 128.546 11.4209 128.429 11.317C128.311 11.213 128.259 11.0961 128.285 10.9662C128.298 10.8752 128.35 10.7973 128.442 10.7323C128.533 10.6673 128.754 10.6154 129.132 10.5634C129.496 10.5114 129.731 10.4335 129.835 10.3295C129.939 10.2256 130.043 9.86176 130.16 9.23809L130.824 5.63903C130.863 5.40515 130.85 5.19727 130.772 5.00237C130.694 4.80748 130.512 4.62557 130.212 4.46966C129.913 4.31374 129.731 4.1968 129.692 4.10585C129.639 4.0279 129.626 3.93694 129.652 3.84599C129.705 3.58613 129.913 3.48219 130.29 3.54715C130.395 3.56015 130.564 3.61212 130.798 3.70307C131.033 3.78103 131.202 3.833 131.293 3.85899C131.371 3.87198 131.501 3.88497 131.684 3.88497C131.866 3.88497 132.087 3.91096 132.335 3.94994C132.764 4.0279 132.894 4.52163 132.725 5.43114L132.595 6.00283Z" fill="#8CAD40"/>
<path id="Vector_10" d="M144.17 8.80929L144.118 9.14711C144.157 9.1601 144.443 8.84827 144.99 8.21161C145.537 7.57495 146.019 7.15918 146.422 6.9383C146.826 6.73041 147.203 6.66544 147.555 6.76939C147.815 6.84734 148.011 6.95129 148.115 7.09421C148.219 7.23713 148.258 7.35407 148.219 7.47101C148.154 7.6789 148.063 7.82182 147.932 7.91277C147.802 8.00372 147.594 8.10767 147.308 8.21161C146.097 8.65337 145.12 9.355 144.365 10.2775C143.61 11.213 143.115 12.0316 142.907 12.7332C142.803 13.058 142.79 13.3049 142.842 13.4478C142.894 13.5907 143.076 13.7596 143.389 13.9415C143.701 14.1234 143.896 14.2793 143.974 14.3963C144.053 14.5262 144.066 14.6432 144.026 14.7731C143.961 14.994 143.792 15.0719 143.519 14.994C143.297 14.929 143.011 14.7991 142.646 14.6172C142.282 14.4353 141.878 14.2793 141.449 14.1364C141.149 14.0455 140.85 13.9935 140.524 13.9675C140.199 13.9415 140.003 13.9285 139.912 13.9025C139.691 13.8376 139.535 13.7466 139.43 13.6167C139.326 13.4998 139.287 13.3698 139.326 13.2529C139.352 13.1619 139.417 13.084 139.509 13.032C139.6 12.98 139.834 12.9411 140.212 12.9281C140.589 12.9151 140.824 12.8631 140.941 12.7722C141.058 12.6812 141.201 12.3304 141.383 11.7327L142.438 8.2376C142.503 8.01672 142.516 7.79583 142.464 7.58795C142.412 7.38006 142.243 7.18516 141.956 6.99027C141.67 6.79537 141.514 6.66544 141.475 6.57449C141.436 6.48354 141.436 6.40558 141.462 6.31463C141.54 6.05477 141.761 5.97681 142.126 6.09375C142.23 6.11974 142.386 6.19769 142.607 6.30164C142.829 6.40558 142.985 6.48354 143.089 6.50953C143.167 6.53551 143.297 6.5615 143.48 6.57449C143.662 6.60048 143.87 6.63946 144.118 6.71741C144.534 6.84734 144.612 7.35407 144.339 8.2376L144.17 8.80929Z" fill="#8CAD40"/>
<path id="Vector_11" d="M154.13 9.25108C155.367 9.74482 156.278 10.6024 156.864 11.8237C157.45 13.045 157.515 14.2144 157.072 15.3188C156.578 16.5662 155.731 17.3977 154.534 17.8395C153.336 18.2682 151.995 18.1903 150.523 17.6056C149.352 17.1378 148.466 16.3193 147.854 15.1499C147.242 13.9805 147.177 12.7982 147.646 11.6158C148.102 10.4854 148.909 9.65387 150.068 9.12115C151.227 8.58844 152.581 8.64041 154.13 9.25108ZM151.161 16.7091C152.021 17.0469 152.828 17.0209 153.596 16.6051C154.351 16.1894 154.924 15.5137 155.302 14.5652C155.679 13.6297 155.705 12.7592 155.393 11.9406C155.08 11.1221 154.508 10.5504 153.661 10.2126C152.789 9.86176 152.008 9.88774 151.292 10.2905C150.576 10.6803 150.042 11.343 149.664 12.2655C149.261 13.2919 149.195 14.2014 149.482 15.007C149.781 15.8126 150.341 16.3842 151.161 16.7091Z" fill="#8CAD40"/>
<path id="Vector_12" d="M164.403 13.9804C165.587 14.6041 166.408 15.5396 166.863 16.8129C167.319 18.0862 167.267 19.2556 166.707 20.308C166.082 21.5034 165.158 22.244 163.921 22.5558C162.684 22.8676 161.369 22.6468 159.95 21.9062C158.843 21.3215 158.036 20.4249 157.554 19.1906C157.072 17.9693 157.125 16.7869 157.71 15.6565C158.283 14.5781 159.169 13.8245 160.38 13.4217C161.577 13.0319 162.918 13.2138 164.403 13.9804ZM160.679 21.1006C161.499 21.5294 162.306 21.5813 163.114 21.2435C163.908 20.9057 164.546 20.295 165.028 19.3855C165.496 18.502 165.614 17.6314 165.392 16.7869C165.171 15.9424 164.65 15.3057 163.843 14.8899C163.01 14.4612 162.228 14.3962 161.473 14.721C160.718 15.0458 160.119 15.6435 159.65 16.527C159.143 17.5015 158.986 18.411 159.195 19.2426C159.403 20.0741 159.898 20.6848 160.679 21.1006Z" fill="#8CAD40"/>
<path id="Vector_13" d="M169.572 23.9722C169.207 24.5439 168.999 24.9207 168.947 25.1156C168.895 25.3105 168.947 25.4534 169.09 25.5443C169.311 25.6873 169.663 25.7392 170.144 25.7002C170.626 25.6613 170.913 25.6743 171.03 25.7522C171.121 25.8042 171.173 25.8951 171.186 26.0251C171.199 26.155 171.173 26.2719 171.095 26.3889C170.978 26.5838 170.509 26.7267 169.689 26.8176C168.869 26.9086 168.27 26.8306 167.866 26.5708C166.798 25.8821 166.759 24.7648 167.762 23.1926L170.262 19.2817C170.34 19.1518 170.366 19.0738 170.34 19.0348C170.314 19.0088 170.131 18.8789 169.78 18.658C169.506 18.4891 169.35 18.3332 169.311 18.1903C169.272 18.0474 169.298 17.9044 169.389 17.7615C169.467 17.6316 169.572 17.5666 169.676 17.5536C169.78 17.5406 169.962 17.5796 170.197 17.6446C170.444 17.7225 170.639 17.7485 170.808 17.7485C170.965 17.7485 171.225 17.6836 171.59 17.5536C171.941 17.4367 172.319 17.1768 172.683 16.787C173.048 16.3973 173.504 15.7736 174.05 14.942C174.311 14.5392 174.545 14.4093 174.767 14.5522C175.014 14.7082 175.131 14.8641 175.118 15.02C175.105 15.1759 175.014 15.3838 174.845 15.6437L172.67 19.0348C172.579 19.1648 172.631 19.2947 172.801 19.4116L174.246 20.3341C174.532 20.516 174.597 20.7369 174.441 20.9968C174.246 21.2956 173.946 21.3086 173.53 21.0358L172.254 20.2302C172.163 20.1652 172.097 20.1522 172.045 20.1652C172.006 20.1782 171.941 20.2562 171.863 20.3731L169.572 23.9722Z" fill="#8CAD40"/>
<path id="Vector_14" d="M176.837 23.9203C176.733 24.0632 176.68 24.2711 176.707 24.5309C176.733 24.7908 176.967 25.3885 177.423 26.337C177.878 27.2855 178.1 28.0391 178.074 28.6107C178.048 29.1824 177.891 29.6762 177.579 30.0919C177.097 30.7416 176.433 31.0664 175.6 31.0404C174.767 31.0145 173.92 30.6896 173.048 30.053C172.566 29.7022 172.176 29.2474 171.85 28.6757C171.525 28.104 171.446 27.7272 171.603 27.5193C171.733 27.3504 171.876 27.1165 172.045 26.8437C172.215 26.5708 172.345 26.35 172.462 26.194C172.696 25.8692 172.97 25.8302 173.256 26.0381C173.347 26.1031 173.399 26.194 173.412 26.324C173.426 26.4539 173.373 26.7657 173.217 27.2855C173.074 27.8052 173.061 28.221 173.165 28.5328C173.282 28.8446 173.465 29.1045 173.751 29.3124C174.09 29.5592 174.467 29.6632 174.871 29.6112C175.274 29.5592 175.613 29.3643 175.873 29.0005C176.043 28.7667 176.121 28.4938 176.121 28.169C176.108 27.8442 175.873 27.2465 175.405 26.3759C174.936 25.5054 174.714 24.8298 174.741 24.336C174.767 23.8553 174.923 23.4135 175.209 23.0367C175.587 22.53 176.134 22.2831 176.85 22.2961C177.566 22.3091 178.243 22.53 178.868 22.9978C179.389 23.3746 179.818 23.8423 180.183 24.388C180.547 24.9337 180.652 25.3105 180.495 25.5054C180.404 25.6224 180.3 25.7913 180.196 25.9862C180.092 26.1811 179.988 26.337 179.909 26.4539C179.805 26.5838 179.688 26.6878 179.545 26.7398C179.402 26.7917 179.271 26.7787 179.167 26.7008C179.011 26.5838 178.933 26.4669 178.933 26.35C178.92 26.233 178.972 26.0511 179.05 25.8302C179.141 25.6094 179.167 25.3885 179.128 25.1936C179.089 24.9987 179.011 24.7778 178.894 24.5439C178.764 24.3101 178.581 24.1022 178.347 23.9333C178.113 23.7514 177.826 23.6604 177.501 23.6604C177.175 23.6604 176.967 23.7384 176.837 23.9203Z" fill="#8CAD40"/>
<path id="Vector_15" d="M193.047 48.0613C192.981 48.0483 192.89 48.0613 192.76 48.1002C192.643 48.1392 192.539 48.1392 192.448 48.1262C192.356 48.1132 192.265 48.0223 192.161 47.8923C192.083 47.7884 191.979 47.5935 191.849 47.3207C191.719 47.0478 191.614 46.8399 191.51 46.71C191.406 46.5801 191.237 46.4111 191.002 46.2162C190.768 46.0214 190.599 45.8654 190.508 45.7355C190.39 45.5926 190.338 45.4367 190.325 45.2678C190.312 45.0988 190.377 44.9689 190.508 44.865C190.586 44.8 190.69 44.774 190.794 44.8C190.898 44.813 191.133 44.9819 191.51 45.3067C191.875 45.6186 192.226 45.7615 192.539 45.7355C192.851 45.7095 193.177 45.5796 193.476 45.3457L203.293 37.7838C203.827 37.381 204.1 36.9652 204.113 36.5624C204.127 36.3286 204.035 36.0427 203.84 35.7049C203.645 35.3671 203.567 35.1332 203.593 35.0163C203.619 34.8993 203.684 34.7954 203.788 34.7174C203.892 34.6395 204.022 34.6395 204.192 34.7044C204.361 34.7824 204.478 34.8733 204.569 34.9773C204.673 35.1072 204.791 35.3151 204.921 35.601C205.064 35.8868 205.168 36.0947 205.272 36.2116C205.363 36.3286 205.507 36.4715 205.715 36.6534C205.923 36.8353 206.066 36.9782 206.145 37.0692C206.288 37.2641 206.353 37.446 206.314 37.6149C206.275 37.7838 206.119 37.9787 205.832 38.1996L194.648 46.8139C194.257 47.1128 194.088 47.6325 194.153 48.3601C194.218 49.0877 194.414 49.6594 194.752 50.0882C195.13 50.5819 195.755 50.9457 196.601 51.1796C197.447 51.4135 198.359 51.1536 199.335 50.4C200.09 49.8153 200.572 49.1007 200.767 48.2432C200.963 47.3856 200.793 46.619 200.26 45.9174C200.051 45.6446 199.765 45.4367 199.4 45.2678C199.036 45.0988 198.814 44.9689 198.749 44.878C198.684 44.8 198.658 44.6961 198.671 44.5661C198.684 44.4362 198.71 44.3453 198.775 44.2933C199.062 44.0724 199.504 44.1244 200.103 44.4492C200.702 44.774 201.145 45.1248 201.431 45.4886C202.239 46.5281 202.538 47.6845 202.317 48.9578C202.108 50.2311 201.457 51.2835 200.377 52.1151C199.387 52.8817 198.294 53.1415 197.096 52.9077C195.898 52.6738 194.895 52.0371 194.101 51.0107C193.698 50.4909 193.398 49.6724 193.203 48.542L193.047 48.0613Z" fill="#8CAD40"/>
<path id="Vector_16" d="M203.918 61.0931C203.423 61.3919 203.28 61.9376 203.489 62.7042C203.541 62.8991 203.554 63.055 203.541 63.172C203.528 63.2889 203.436 63.4058 203.254 63.5098C203.163 63.5618 203.059 63.5617 202.916 63.4968C202.785 63.4318 202.681 63.3409 202.603 63.2109C202.525 63.081 202.447 62.8861 202.369 62.6263C202.291 62.3664 202.213 62.1715 202.134 62.0286C202.043 61.8727 201.887 61.6908 201.679 61.4829C201.47 61.275 201.34 61.1321 201.288 61.0541C201.236 60.9632 201.21 60.8462 201.223 60.7033C201.236 60.5604 201.275 60.4824 201.34 60.4434C201.444 60.3785 201.483 60.3135 201.444 60.2355C201.418 60.1836 201.353 60.1446 201.262 60.0926C200.312 59.6119 199.557 58.9232 199.01 58.0137C198.749 57.585 198.567 57.0523 198.476 56.3896C198.372 55.727 198.463 55.1033 198.723 54.5056C198.984 53.9079 199.452 53.4142 200.129 52.9984C200.845 52.5697 201.679 52.5177 202.655 52.8685C203.632 53.2193 204.439 53.9209 205.09 54.9994C205.311 55.3632 205.455 55.8179 205.52 56.3766C205.585 56.9353 205.507 57.2731 205.298 57.4031C205.194 57.468 205.09 57.468 204.973 57.4161C204.856 57.3641 204.764 57.2731 204.673 57.1432C204.621 57.0523 204.569 56.8444 204.543 56.5065C204.517 56.1687 204.413 55.8699 204.244 55.597C203.905 55.0383 203.449 54.6745 202.89 54.5056C202.33 54.3367 201.77 54.4277 201.223 54.7655C200.572 55.1553 200.208 55.675 200.129 56.3116C200.038 56.9483 200.168 57.546 200.507 58.1047C200.806 58.6114 201.262 58.9622 201.848 59.1831C202.434 59.404 203.007 59.352 203.554 59.0142L206.353 57.3121C206.77 57.0523 207.03 56.7144 207.121 56.2727C207.212 55.8309 207.121 55.3891 206.835 54.9214C206.47 54.3237 205.923 53.869 205.207 53.5311C204.96 53.4142 204.817 53.3233 204.777 53.2583C204.673 53.0894 204.634 52.9335 204.647 52.7646C204.66 52.5956 204.738 52.4657 204.882 52.3878C205.22 52.1799 205.689 52.3228 206.301 52.7905C206.913 53.2583 207.434 53.856 207.876 54.5836C208.423 55.4801 208.644 56.3376 208.527 57.1692C208.41 57.9877 208.032 58.5984 207.408 58.9752L203.918 61.0931Z" fill="#8CAD40"/>
<path id="Vector_17" d="M208.436 71.1627C208.527 71.3706 208.41 71.5525 208.072 71.7085C207.85 71.8124 207.394 71.5785 206.704 71.0068C206.014 70.4351 205.468 69.7465 205.09 68.9539C204.452 67.6286 204.309 66.3164 204.66 64.9911C205.012 63.6658 205.793 62.7173 207.017 62.1326C208.098 61.6129 209.269 61.6129 210.519 62.1066C211.769 62.6004 212.694 63.4709 213.28 64.7182C213.605 65.3809 213.826 66.2124 213.957 67.1869C214.087 68.1614 214.048 68.7071 213.813 68.811C213.41 69.0059 213.084 69.1878 212.863 69.3437C212.629 69.5126 212.498 69.6036 212.459 69.6166C212.134 69.7725 211.899 69.6945 211.756 69.3957C211.652 69.1618 211.782 68.889 212.16 68.5511C212.537 68.2133 212.759 67.7846 212.811 67.2518C212.863 66.7191 212.759 66.1604 212.472 65.5628C212.121 64.8222 211.509 64.2505 210.636 63.8737C209.777 63.4969 208.84 63.5488 207.824 64.0296C206.887 64.4713 206.301 65.199 206.053 66.1994C205.806 67.1999 205.871 68.0964 206.236 68.863C206.366 69.1488 206.548 69.4217 206.77 69.6945C206.991 69.9674 207.303 70.2272 207.707 70.5001C208.124 70.7859 208.358 70.9938 208.436 71.1627Z" fill="#8CAD40"/>
<path id="Vector_18" d="M211.965 81.0246C211.834 81.2584 211.808 81.4923 211.899 81.7392C211.952 81.8821 212.121 82.012 212.42 82.129C212.72 82.2459 212.889 82.3628 212.928 82.4798C212.967 82.5967 212.954 82.7137 212.876 82.8436C212.798 82.9735 212.694 83.0515 212.576 83.1034C212.186 83.2334 211.743 83.1684 211.209 82.8826C210.689 82.5967 210.363 82.2589 210.22 81.8691C210.09 81.5183 210.116 81.0506 210.285 80.4529C210.454 79.8552 210.923 78.9067 211.691 77.6074C212.238 76.6719 212.498 76.1262 212.446 75.9833C212.433 75.9313 212.316 75.8533 212.121 75.7624C211.912 75.6585 211.704 75.5545 211.483 75.4376C211.261 75.3206 211.105 75.2687 211.001 75.2817C210.897 75.2946 210.636 75.3856 210.181 75.5415C209.972 75.6195 209.816 75.7234 209.712 75.8793C209.608 76.0353 209.582 76.2951 209.66 76.6589C209.738 77.0227 209.738 77.2696 209.673 77.3865C209.608 77.5035 209.504 77.5814 209.361 77.6334C209.243 77.6724 209.139 77.6724 209.048 77.6334C208.957 77.5814 208.866 77.4515 208.788 77.2176C208.71 76.9837 208.618 76.6459 208.514 76.1782C208.41 75.7104 208.319 75.3596 208.241 75.1387C208.163 74.9308 208.019 74.619 207.824 74.2422C207.616 73.8524 207.486 73.5536 207.408 73.3327C207.238 72.852 207.303 72.5661 207.59 72.4622C207.733 72.4102 207.85 72.4102 207.967 72.4492C208.085 72.4882 208.228 72.696 208.41 73.0728C208.592 73.4366 208.788 73.6445 209.022 73.6965C209.256 73.7485 209.491 73.7225 209.751 73.6315L222.133 69.2399C222.341 69.1619 222.511 69.045 222.615 68.8761C222.732 68.7072 222.758 68.4213 222.719 68.0186C222.68 67.6028 222.68 67.3429 222.745 67.226C222.81 67.1091 222.901 67.0311 223.031 66.9791C223.149 66.9401 223.266 66.9661 223.383 67.0701C223.5 67.174 223.591 67.291 223.63 67.4209C223.682 67.5508 223.708 67.7587 223.735 68.0445C223.761 68.3304 223.8 68.5513 223.852 68.7072C223.917 68.8761 224.008 69.071 224.151 69.3049C224.294 69.5387 224.386 69.6947 224.412 69.7726C224.464 69.9285 224.464 70.0455 224.425 70.1494C224.373 70.2793 224.19 70.4093 223.891 70.5782C223.591 70.7341 222.953 70.994 221.951 71.3448L212.98 74.5281C212.785 74.593 212.72 74.697 212.772 74.8269C212.798 74.9179 213.175 75.1257 213.904 75.4636L215.975 76.412C216.079 76.464 216.157 76.49 216.209 76.464C216.261 76.451 216.287 76.3341 216.287 76.1262C216.287 75.9183 216.378 75.7884 216.535 75.7364C216.691 75.6844 216.834 75.6714 216.925 75.7234C217.016 75.7754 217.12 75.9053 217.199 76.1392C217.251 76.2951 217.316 76.529 217.394 76.8408C217.472 77.1526 217.537 77.3995 217.589 77.5684C217.667 77.7763 217.797 78.0752 217.993 78.4779C218.188 78.8807 218.331 79.1796 218.396 79.3874C218.474 79.6083 218.501 79.8162 218.461 80.0111C218.422 80.206 218.331 80.3359 218.162 80.3879C217.863 80.4919 217.615 80.271 217.407 79.7123C217.107 78.8807 216.847 78.348 216.6 78.0752C216.352 77.8153 215.962 77.5554 215.428 77.2956C214.894 77.0487 214.595 76.9058 214.516 76.8798C214.438 76.8538 214.36 76.8538 214.256 76.8928C214.061 76.9578 213.918 77.1137 213.787 77.3475L211.965 81.0246Z" fill="#8CAD40"/>
<path id="Vector_19" d="M215.597 90.4573C214.933 90.6003 214.516 90.7172 214.347 90.8211C214.178 90.9251 214.113 91.055 214.139 91.2239C214.191 91.4838 214.399 91.7696 214.764 92.0815C215.128 92.3933 215.324 92.6142 215.35 92.7441C215.376 92.848 215.35 92.952 215.272 93.0559C215.193 93.1599 215.089 93.2248 214.946 93.2508C214.725 93.3028 214.295 93.0689 213.657 92.5622C213.019 92.0555 212.655 91.5617 212.55 91.094C212.277 89.8467 213.058 89.0411 214.881 88.6513L219.425 87.6768C219.568 87.6508 219.646 87.6119 219.659 87.5729C219.659 87.5339 219.62 87.313 219.529 86.9102C219.464 86.5984 219.464 86.3775 219.529 86.2476C219.594 86.1177 219.724 86.0397 219.894 86.0007C220.05 85.9618 220.167 85.9877 220.245 86.0527C220.323 86.1177 220.427 86.2736 220.545 86.4945C220.662 86.7153 220.779 86.8843 220.896 87.0012C221.013 87.1051 221.248 87.2481 221.573 87.417C221.912 87.5859 222.354 87.6638 222.888 87.6508C223.435 87.6379 224.19 87.5209 225.167 87.313C225.635 87.2091 225.896 87.287 225.948 87.5469C226.013 87.8327 225.987 88.0276 225.87 88.1186C225.753 88.2225 225.544 88.3005 225.232 88.3655L221.287 89.21C221.131 89.249 221.078 89.3659 221.118 89.5608L221.482 91.2369C221.56 91.5747 221.443 91.7696 221.144 91.8346C220.805 91.9126 220.571 91.7047 220.467 91.2109L220.154 89.7427C220.128 89.6388 220.102 89.5738 220.063 89.5478C220.024 89.5348 219.933 89.5348 219.789 89.5738L215.597 90.4573Z" fill="#8CAD40"/>
<path id="Vector_20" d="M223.044 98.2533C223.214 99.5786 222.901 100.787 222.12 101.891C221.339 102.996 220.349 103.619 219.152 103.762C217.823 103.931 216.665 103.593 215.714 102.762C214.751 101.93 214.178 100.722 213.983 99.1368C213.826 97.8895 214.113 96.7201 214.842 95.6157C215.571 94.5113 216.574 93.8876 217.837 93.7187C219.047 93.5628 220.167 93.8617 221.196 94.6283C222.224 95.3948 222.836 96.6032 223.044 98.2533ZM215.063 99.2668C215.18 100.189 215.61 100.878 216.339 101.333C217.068 101.787 217.941 101.956 218.956 101.839C219.959 101.709 220.74 101.32 221.3 100.644C221.86 99.9814 222.094 99.1888 221.977 98.2923C221.86 97.3698 221.456 96.6941 220.766 96.2654C220.076 95.8366 219.23 95.6807 218.24 95.8106C217.146 95.9535 216.313 96.3433 215.753 96.993C215.18 97.6296 214.959 98.3962 215.063 99.2668Z" fill="#8CAD40"/>
<path id="Vector_21" d="M223.917 113.624C223.891 114.962 223.422 116.119 222.485 117.093C221.547 118.068 220.48 118.548 219.282 118.535C217.941 118.509 216.847 118.016 216.014 117.054C215.18 116.093 214.777 114.819 214.803 113.221C214.829 111.974 215.272 110.844 216.144 109.856C217.016 108.869 218.097 108.388 219.386 108.414C220.61 108.44 221.677 108.895 222.589 109.791C223.5 110.675 223.943 111.961 223.917 113.624ZM215.87 113.494C215.857 114.417 216.183 115.157 216.834 115.716C217.498 116.275 218.331 116.56 219.36 116.586C220.362 116.599 221.196 116.327 221.847 115.742C222.498 115.157 222.836 114.417 222.849 113.507C222.862 112.572 222.563 111.844 221.938 111.324C221.313 110.805 220.506 110.532 219.503 110.519C218.396 110.506 217.524 110.766 216.873 111.337C216.222 111.896 215.884 112.611 215.87 113.494Z" fill="#8CAD40"/>
<path id="Vector_22" d="M220.388 126.955C220.961 127.02 221.326 126.747 221.495 126.136C221.599 125.772 221.69 125.538 221.795 125.461C221.886 125.37 222.003 125.344 222.133 125.357C222.433 125.396 222.55 125.642 222.498 126.097C222.485 126.214 222.406 126.448 222.289 126.812C222.159 127.163 222.068 127.552 222.029 127.968C222.016 128.085 222.016 128.228 222.029 128.397C222.042 128.566 222.042 128.67 222.042 128.709C222.016 128.93 221.755 129.008 221.274 128.943C217.589 128.514 215.636 128.306 215.389 128.345C215.141 128.384 214.92 128.683 214.699 129.241C214.581 129.54 214.49 129.709 214.412 129.774C214.334 129.839 214.256 129.865 214.165 129.852C214.061 129.839 213.97 129.761 213.891 129.618C213.813 129.475 213.787 129.306 213.813 129.099C213.826 129.008 213.878 128.8 213.97 128.462C214.061 128.124 214.126 127.877 214.139 127.734C214.152 127.578 214.152 127.396 214.126 127.176C214.1 126.955 214.087 126.812 214.087 126.734C214.113 126.552 214.165 126.448 214.269 126.396C214.373 126.344 214.608 126.331 214.985 126.357C215.363 126.383 216.092 126.461 217.159 126.578L220.388 126.955ZM216.756 122.524C216.365 122.472 216.027 122.589 215.727 122.849C215.441 123.122 215.272 123.46 215.219 123.862C215.193 124.122 215.259 124.421 215.415 124.798C215.571 125.162 215.649 125.435 215.636 125.59C215.623 125.746 215.506 125.811 215.311 125.798C215.076 125.772 214.829 125.448 214.555 124.811C214.282 124.174 214.191 123.486 214.282 122.732C214.347 122.147 214.595 121.667 214.998 121.277C215.402 120.887 215.844 120.679 216.287 120.666C216.73 120.653 218.383 120.809 221.235 121.147C221.612 121.186 221.938 120.835 222.211 120.068C222.328 119.731 222.485 119.575 222.68 119.601C222.81 119.614 222.901 119.679 222.966 119.796C223.031 119.913 223.044 120.055 223.031 120.211C223.031 120.263 222.966 120.484 222.849 120.9C222.732 121.316 222.667 121.667 222.628 121.952C222.615 122.056 222.628 122.212 222.667 122.42C222.706 122.628 222.719 122.758 222.706 122.81C222.68 123.07 222.12 123.148 221.026 123.018L216.756 122.524Z" fill="#8CAD40"/>
<path id="Vector_23" d="M218.631 135.062L218.292 135.036C218.279 135.075 218.618 135.335 219.295 135.829C219.972 136.323 220.427 136.764 220.675 137.154C220.922 137.544 221 137.921 220.935 138.259C220.883 138.531 220.792 138.726 220.662 138.843C220.532 138.96 220.414 139.012 220.297 138.986C220.089 138.947 219.933 138.856 219.829 138.739C219.724 138.622 219.607 138.415 219.477 138.142C218.93 136.972 218.162 136.063 217.172 135.374C216.183 134.686 215.324 134.283 214.608 134.127C214.269 134.049 214.035 134.049 213.891 134.114C213.748 134.179 213.605 134.374 213.449 134.698C213.293 135.023 213.149 135.231 213.032 135.309C212.915 135.387 212.785 135.413 212.668 135.387C212.433 135.335 212.355 135.179 212.407 134.893C212.459 134.673 212.55 134.374 212.707 133.997C212.863 133.62 212.993 133.204 213.084 132.763C213.149 132.464 213.175 132.152 213.175 131.827C213.175 131.502 213.175 131.294 213.201 131.216C213.253 130.995 213.332 130.827 213.436 130.71C213.553 130.593 213.67 130.554 213.8 130.58C213.891 130.606 213.97 130.658 214.035 130.749C214.1 130.84 214.152 131.073 214.191 131.437C214.23 131.814 214.308 132.048 214.412 132.152C214.516 132.256 214.868 132.373 215.493 132.503L219.073 133.269C219.295 133.321 219.516 133.308 219.724 133.243C219.933 133.178 220.115 132.996 220.284 132.698C220.453 132.399 220.571 132.23 220.662 132.191C220.753 132.152 220.831 132.139 220.922 132.152C221.183 132.204 221.274 132.425 221.196 132.789C221.17 132.892 221.118 133.061 221.026 133.295C220.935 133.529 220.883 133.685 220.857 133.789C220.844 133.867 220.831 133.997 220.818 134.179C220.805 134.361 220.779 134.582 220.727 134.828C220.636 135.257 220.141 135.374 219.23 135.179L218.631 135.062Z" fill="#8CAD40"/>
<path id="Vector_24" d="M215.48 146.522L215.141 146.457C215.128 146.496 215.428 146.795 216.053 147.354C216.678 147.912 217.081 148.406 217.277 148.822C217.472 149.238 217.524 149.614 217.407 149.952C217.316 150.212 217.212 150.394 217.068 150.498C216.925 150.602 216.808 150.628 216.691 150.589C216.495 150.524 216.352 150.42 216.261 150.29C216.17 150.16 216.079 149.952 215.975 149.666C215.558 148.445 214.894 147.445 213.983 146.665C213.071 145.885 212.264 145.379 211.561 145.145C211.235 145.041 211.001 145.002 210.845 145.054C210.702 145.106 210.532 145.275 210.337 145.587C210.142 145.898 209.985 146.08 209.855 146.158C209.725 146.223 209.608 146.236 209.478 146.197C209.256 146.119 209.191 145.95 209.269 145.678C209.334 145.47 209.478 145.184 209.673 144.82C209.868 144.456 210.038 144.066 210.181 143.638C210.272 143.352 210.337 143.04 210.376 142.715C210.402 142.39 210.441 142.195 210.467 142.105C210.532 141.884 210.636 141.728 210.767 141.624C210.897 141.52 211.014 141.494 211.144 141.533C211.235 141.559 211.314 141.624 211.353 141.728C211.392 141.832 211.431 142.066 211.431 142.429C211.431 142.806 211.483 143.04 211.561 143.157C211.652 143.274 211.991 143.43 212.589 143.625L216.066 144.781C216.287 144.859 216.495 144.872 216.704 144.82C216.912 144.781 217.12 144.612 217.316 144.339C217.511 144.066 217.654 143.911 217.745 143.872C217.836 143.833 217.928 143.833 218.006 143.859C218.266 143.95 218.331 144.17 218.214 144.521C218.175 144.625 218.11 144.781 217.993 145.002C217.876 145.223 217.797 145.379 217.771 145.47C217.745 145.548 217.719 145.678 217.693 145.86C217.667 146.041 217.615 146.249 217.537 146.483C217.394 146.899 216.886 146.951 216.014 146.665L215.48 146.522Z" fill="#8CAD40"/>
<path id="Vector_25" d="M214.751 156.41C214.217 157.631 213.332 158.515 212.095 159.061C210.858 159.606 209.686 159.645 208.592 159.165C207.355 158.632 206.548 157.761 206.145 156.553C205.741 155.345 205.871 154.019 206.496 152.551C206.991 151.395 207.837 150.537 209.035 149.965C210.22 149.394 211.405 149.355 212.576 149.862C213.696 150.342 214.503 151.174 214.998 152.356C215.493 153.539 215.415 154.89 214.751 156.41ZM207.368 153.227C207.004 154.071 207.017 154.89 207.408 155.656C207.798 156.423 208.462 157.021 209.4 157.423C210.324 157.826 211.196 157.878 212.03 157.592C212.85 157.307 213.449 156.748 213.813 155.916C214.191 155.059 214.178 154.266 213.813 153.552C213.436 152.824 212.798 152.265 211.873 151.875C210.858 151.434 209.946 151.356 209.126 151.616C208.306 151.888 207.72 152.421 207.368 153.227Z" fill="#8CAD40"/>
<path id="Vector_26" d="M209.725 166.506C209.074 167.675 208.098 168.455 206.809 168.87C205.52 169.286 204.361 169.208 203.306 168.623C202.134 167.961 201.405 167.012 201.132 165.778C200.859 164.544 201.119 163.218 201.887 161.841C202.499 160.75 203.436 159.97 204.673 159.528C205.91 159.074 207.095 159.165 208.215 159.788C209.282 160.386 209.999 161.295 210.376 162.517C210.754 163.738 210.545 165.05 209.725 166.506ZM202.707 162.582C202.252 163.387 202.187 164.193 202.499 164.998C202.812 165.804 203.41 166.454 204.309 166.96C205.181 167.454 206.053 167.597 206.9 167.402C207.746 167.207 208.397 166.7 208.84 165.908C209.295 165.089 209.374 164.31 209.074 163.556C208.775 162.803 208.189 162.179 207.316 161.685C206.353 161.139 205.455 160.971 204.608 161.152C203.775 161.334 203.137 161.815 202.707 162.582Z" fill="#8CAD40"/>
<path id="Vector_27" d="M199.57 171.391C199.01 171.014 198.632 170.793 198.437 170.741C198.242 170.689 198.098 170.728 198.007 170.871C197.864 171.092 197.799 171.43 197.825 171.911C197.851 172.391 197.825 172.677 197.747 172.794C197.682 172.885 197.591 172.937 197.46 172.95C197.33 172.963 197.213 172.924 197.096 172.859C196.9 172.729 196.77 172.261 196.705 171.456C196.64 170.65 196.731 170.04 197.005 169.637C197.721 168.584 198.853 168.584 200.39 169.637L204.231 172.235C204.361 172.326 204.439 172.352 204.465 172.326C204.491 172.3 204.634 172.118 204.856 171.781C205.038 171.521 205.194 171.365 205.337 171.326C205.481 171.287 205.624 171.313 205.767 171.417C205.897 171.508 205.962 171.599 205.975 171.703C205.975 171.807 205.949 171.988 205.858 172.222C205.767 172.456 205.741 172.664 205.741 172.82C205.741 172.976 205.793 173.249 205.91 173.6C206.014 173.963 206.262 174.327 206.652 174.717C207.03 175.094 207.642 175.575 208.462 176.133C208.853 176.406 208.983 176.64 208.827 176.861C208.657 177.108 208.501 177.212 208.358 177.199C208.202 177.186 208.006 177.095 207.746 176.913L204.413 174.652C204.283 174.561 204.153 174.6 204.035 174.782L203.072 176.198C202.877 176.484 202.655 176.549 202.408 176.367C202.121 176.172 202.108 175.86 202.395 175.458L203.241 174.21C203.306 174.119 203.332 174.054 203.306 174.015C203.293 173.976 203.228 173.911 203.098 173.833L199.57 171.391Z" fill="#8CAD40"/>
<path id="Vector_28" d="M199.4 178.667C199.257 178.55 199.049 178.498 198.801 178.524C198.541 178.537 197.929 178.758 196.966 179.187C196.002 179.616 195.234 179.81 194.661 179.771C194.088 179.732 193.593 179.551 193.19 179.239C192.552 178.732 192.252 178.069 192.291 177.238C192.33 176.406 192.682 175.562 193.346 174.717C193.711 174.249 194.179 173.86 194.752 173.561C195.325 173.262 195.716 173.184 195.924 173.353C196.093 173.483 196.315 173.639 196.588 173.808C196.861 173.977 197.07 174.119 197.226 174.249C197.538 174.496 197.577 174.756 197.356 175.042C197.291 175.12 197.2 175.172 197.07 175.185C196.94 175.198 196.627 175.133 196.106 174.964C195.585 174.795 195.182 174.769 194.856 174.873C194.544 174.977 194.27 175.159 194.062 175.432C193.802 175.77 193.685 176.133 193.724 176.536C193.763 176.939 193.958 177.277 194.296 177.55C194.518 177.732 194.804 177.822 195.117 177.809C195.442 177.809 196.041 177.589 196.94 177.147C197.825 176.705 198.515 176.51 198.997 176.549C199.478 176.588 199.908 176.757 200.286 177.043C200.78 177.433 201.015 177.978 200.989 178.706C200.963 179.421 200.715 180.096 200.234 180.694C199.83 181.201 199.361 181.616 198.801 181.967C198.242 182.318 197.877 182.396 197.669 182.24C197.551 182.149 197.395 182.045 197.187 181.928C196.992 181.811 196.835 181.72 196.731 181.629C196.601 181.525 196.51 181.396 196.458 181.253C196.406 181.11 196.432 180.98 196.51 180.876C196.627 180.733 196.744 180.655 196.861 180.655C196.979 180.655 197.161 180.694 197.382 180.798C197.604 180.902 197.812 180.928 198.02 180.902C198.215 180.876 198.437 180.798 198.671 180.681C198.906 180.564 199.114 180.382 199.296 180.161C199.478 179.927 199.583 179.655 199.596 179.33C199.648 179.031 199.57 178.797 199.4 178.667Z" fill="#8CAD40"/>
<path id="Vector_29" d="M177.748 191.79C177.761 191.725 177.748 191.634 177.709 191.504C177.67 191.387 177.67 191.283 177.683 191.192C177.696 191.101 177.787 191.01 177.917 190.893C178.022 190.815 178.217 190.698 178.49 190.582C178.764 190.452 178.972 190.335 179.102 190.231C179.232 190.127 179.402 189.958 179.597 189.711C179.792 189.464 179.949 189.308 180.066 189.204C180.209 189.087 180.365 189.022 180.534 189.022C180.704 189.009 180.834 189.074 180.938 189.204C181.003 189.282 181.029 189.386 181.016 189.49C181.003 189.594 180.834 189.841 180.521 190.205C180.209 190.569 180.066 190.919 180.105 191.244C180.144 191.569 180.274 191.868 180.508 192.167L188.164 201.898C188.581 202.418 188.984 202.691 189.401 202.704C189.635 202.717 189.922 202.626 190.26 202.431C190.599 202.236 190.833 202.145 190.95 202.171C191.068 202.197 191.172 202.262 191.25 202.366C191.328 202.47 191.341 202.6 191.263 202.769C191.198 202.938 191.107 203.055 190.989 203.146C190.859 203.25 190.651 203.367 190.364 203.51C190.078 203.653 189.87 203.769 189.753 203.86C189.635 203.951 189.492 204.094 189.323 204.302C189.154 204.51 189.01 204.653 188.906 204.731C188.711 204.874 188.542 204.939 188.359 204.9C188.19 204.861 187.995 204.705 187.773 204.419L179.05 193.323C178.738 192.933 178.23 192.764 177.501 192.842C176.772 192.92 176.199 193.115 175.769 193.453C175.274 193.843 174.923 194.453 174.701 195.298C174.48 196.143 174.754 197.052 175.509 198.027C176.095 198.78 176.824 199.248 177.683 199.443C178.542 199.638 179.311 199.456 180.014 198.91C180.274 198.702 180.495 198.416 180.665 198.053C180.834 197.689 180.964 197.468 181.042 197.403C181.12 197.338 181.224 197.312 181.355 197.325C181.485 197.325 181.576 197.364 181.628 197.429C181.849 197.715 181.81 198.156 181.485 198.754C181.159 199.352 180.821 199.794 180.443 200.092C179.402 200.898 178.243 201.21 176.967 201.015C175.691 200.82 174.636 200.183 173.79 199.118C173.022 198.143 172.748 197.052 172.97 195.844C173.191 194.635 173.816 193.635 174.845 192.842C175.365 192.44 176.186 192.128 177.305 191.92L177.748 191.79Z" fill="#8CAD40"/>
<path id="Vector_30" d="M164.819 202.717C164.52 202.223 163.973 202.093 163.192 202.301C162.997 202.353 162.84 202.379 162.723 202.366C162.606 202.353 162.489 202.262 162.385 202.093C162.333 202.002 162.333 201.899 162.398 201.756C162.463 201.613 162.554 201.522 162.684 201.444C162.814 201.366 163.01 201.288 163.27 201.21C163.53 201.132 163.726 201.054 163.869 200.963C164.025 200.859 164.207 200.716 164.403 200.508C164.598 200.3 164.741 200.17 164.832 200.118C164.923 200.054 165.041 200.041 165.184 200.041C165.314 200.054 165.405 200.092 165.444 200.157C165.509 200.261 165.574 200.3 165.653 200.261C165.705 200.235 165.744 200.17 165.796 200.079C166.278 199.118 166.955 198.364 167.853 197.806C168.283 197.546 168.816 197.364 169.48 197.247C170.144 197.13 170.769 197.221 171.368 197.481C171.967 197.741 172.475 198.208 172.892 198.871C173.334 199.586 173.386 200.417 173.048 201.392C172.709 202.353 172.006 203.172 170.926 203.834C170.561 204.055 170.105 204.198 169.546 204.276C168.986 204.354 168.647 204.276 168.504 204.055C168.439 203.951 168.439 203.847 168.491 203.731C168.543 203.614 168.634 203.51 168.764 203.432C168.856 203.38 169.064 203.328 169.402 203.289C169.741 203.25 170.04 203.146 170.314 202.977C170.874 202.626 171.238 202.171 171.394 201.613C171.564 201.054 171.473 200.495 171.121 199.95C170.717 199.313 170.21 198.949 169.572 198.871C168.934 198.793 168.335 198.923 167.788 199.261C167.293 199.573 166.929 200.015 166.72 200.612C166.499 201.197 166.564 201.769 166.903 202.314L168.634 205.095C168.895 205.511 169.246 205.757 169.676 205.848C170.118 205.939 170.561 205.835 171.03 205.55C171.629 205.186 172.084 204.64 172.41 203.912C172.514 203.666 172.605 203.523 172.683 203.484C172.853 203.38 173.009 203.341 173.178 203.354C173.347 203.367 173.478 203.445 173.556 203.575C173.764 203.912 173.634 204.38 173.165 204.991C172.696 205.602 172.097 206.134 171.381 206.576C170.483 207.135 169.624 207.356 168.79 207.239C167.957 207.122 167.358 206.758 166.968 206.147L164.819 202.717Z" fill="#8CAD40"/>
<path id="Vector_31" d="M154.742 207.343C154.534 207.447 154.351 207.317 154.195 206.992C154.091 206.771 154.312 206.316 154.885 205.628C155.445 204.926 156.135 204.38 156.929 203.99C158.244 203.354 159.572 203.198 160.9 203.536C162.228 203.874 163.192 204.653 163.791 205.861C164.325 206.94 164.338 208.096 163.843 209.344C163.348 210.591 162.489 211.526 161.252 212.124C160.588 212.449 159.768 212.683 158.778 212.826C157.802 212.969 157.255 212.93 157.138 212.696C156.942 212.293 156.76 211.981 156.591 211.747C156.421 211.513 156.33 211.383 156.317 211.345C156.161 211.02 156.226 210.786 156.526 210.643C156.747 210.526 157.033 210.656 157.372 211.033C157.71 211.409 158.14 211.617 158.674 211.682C159.208 211.747 159.768 211.63 160.353 211.331C161.096 210.968 161.655 210.357 162.033 209.486C162.398 208.629 162.346 207.693 161.851 206.68C161.395 205.758 160.666 205.173 159.663 204.926C158.661 204.692 157.763 204.757 156.994 205.134C156.708 205.277 156.434 205.446 156.161 205.667C155.888 205.887 155.627 206.199 155.367 206.602C155.106 207.018 154.898 207.265 154.742 207.343Z" fill="#8CAD40"/>
<path id="Vector_32" d="M144.899 210.929C144.664 210.799 144.43 210.786 144.183 210.877C144.04 210.929 143.909 211.097 143.805 211.396C143.688 211.695 143.571 211.864 143.454 211.916C143.336 211.955 143.219 211.942 143.089 211.864C142.959 211.786 142.868 211.695 142.829 211.565C142.685 211.188 142.764 210.734 143.037 210.201C143.323 209.681 143.649 209.343 144.04 209.2C144.391 209.071 144.86 209.097 145.459 209.252C146.058 209.421 147.008 209.876 148.323 210.63C149.274 211.175 149.82 211.422 149.964 211.37C150.016 211.357 150.094 211.24 150.185 211.032C150.276 210.825 150.393 210.617 150.497 210.396C150.615 210.175 150.667 210.019 150.654 209.915C150.641 209.811 150.549 209.551 150.393 209.096C150.315 208.889 150.198 208.733 150.055 208.629C149.898 208.525 149.638 208.512 149.274 208.59C148.909 208.668 148.662 208.681 148.544 208.603C148.427 208.525 148.349 208.434 148.297 208.291C148.258 208.174 148.258 208.07 148.297 207.979C148.336 207.888 148.479 207.797 148.714 207.719C148.935 207.641 149.287 207.537 149.755 207.433C150.224 207.329 150.576 207.238 150.797 207.148C151.005 207.07 151.305 206.927 151.695 206.719C152.086 206.511 152.385 206.368 152.594 206.29C153.075 206.121 153.362 206.173 153.466 206.459C153.518 206.602 153.518 206.719 153.479 206.836C153.44 206.953 153.232 207.096 152.867 207.277C152.502 207.459 152.294 207.667 152.255 207.888C152.216 208.122 152.229 208.356 152.333 208.616L156.838 220.933C156.916 221.141 157.033 221.31 157.203 221.414C157.372 221.518 157.658 221.557 158.062 221.505C158.479 221.453 158.739 221.466 158.856 221.531C158.973 221.596 159.051 221.687 159.104 221.817C159.143 221.934 159.117 222.051 159.012 222.167C158.908 222.284 158.791 222.375 158.674 222.427C158.557 222.479 158.335 222.505 158.049 222.544C157.763 222.57 157.541 222.609 157.385 222.674C157.216 222.739 157.02 222.843 156.786 222.986C156.552 223.129 156.395 223.22 156.317 223.246C156.161 223.298 156.044 223.311 155.94 223.259C155.81 223.207 155.666 223.025 155.51 222.726C155.341 222.427 155.08 221.791 154.716 220.803L151.448 211.877C151.383 211.682 151.279 211.617 151.135 211.669C151.044 211.708 150.836 212.085 150.51 212.8L149.573 214.878C149.521 214.982 149.495 215.06 149.521 215.112C149.534 215.164 149.651 215.19 149.859 215.19C150.068 215.19 150.198 215.281 150.25 215.424C150.302 215.58 150.315 215.71 150.276 215.814C150.237 215.918 150.094 216.009 149.859 216.1C149.703 216.152 149.469 216.217 149.156 216.295C148.844 216.373 148.596 216.438 148.427 216.503C148.219 216.58 147.919 216.71 147.516 216.918C147.112 217.126 146.813 217.256 146.604 217.334C146.383 217.412 146.175 217.438 145.979 217.399C145.784 217.373 145.654 217.269 145.602 217.113C145.498 216.814 145.719 216.567 146.279 216.36C147.099 216.061 147.646 215.788 147.906 215.541C148.167 215.294 148.427 214.904 148.675 214.372C148.922 213.839 149.065 213.54 149.091 213.462C149.117 213.384 149.104 213.306 149.078 213.202C149.013 213.007 148.857 212.864 148.61 212.748L144.899 210.929Z" fill="#8CAD40"/>
<path id="Vector_33" d="M135.485 214.645C135.342 213.982 135.212 213.566 135.108 213.397C135.004 213.228 134.873 213.163 134.704 213.202C134.444 213.254 134.17 213.475 133.858 213.839C133.545 214.203 133.324 214.398 133.207 214.437C133.103 214.463 132.999 214.437 132.894 214.359C132.79 214.281 132.725 214.177 132.699 214.034C132.647 213.813 132.881 213.384 133.376 212.735C133.884 212.098 134.366 211.721 134.834 211.617C136.071 211.344 136.905 212.111 137.308 213.93L138.324 218.452C138.363 218.594 138.389 218.672 138.441 218.685C138.48 218.685 138.701 218.646 139.105 218.555C139.417 218.49 139.639 218.477 139.769 218.555C139.899 218.62 139.99 218.737 140.029 218.919C140.068 219.075 140.042 219.192 139.977 219.27C139.912 219.348 139.756 219.452 139.535 219.569C139.313 219.686 139.144 219.803 139.027 219.933C138.91 220.063 138.779 220.284 138.61 220.621C138.441 220.959 138.363 221.401 138.389 221.934C138.402 222.479 138.519 223.233 138.74 224.207C138.845 224.675 138.766 224.935 138.519 224.987C138.233 225.052 138.037 225.026 137.933 224.909C137.829 224.792 137.751 224.584 137.686 224.285L136.8 220.361C136.761 220.206 136.644 220.154 136.436 220.193L134.756 220.569C134.418 220.647 134.223 220.53 134.144 220.245C134.066 219.907 134.275 219.673 134.756 219.569L136.228 219.244C136.332 219.218 136.397 219.192 136.423 219.14C136.449 219.088 136.436 219.01 136.397 218.867L135.485 214.645Z" fill="#8CAD40"/>
<path id="Vector_34" d="M127.713 222.142C126.384 222.323 125.174 222.025 124.067 221.245C122.96 220.465 122.322 219.491 122.166 218.309C121.984 216.983 122.309 215.827 123.143 214.865C123.976 213.904 125.174 213.319 126.749 213.098C127.999 212.929 129.171 213.202 130.277 213.93C131.384 214.658 132.022 215.645 132.204 216.905C132.374 218.114 132.074 219.231 131.319 220.271C130.564 221.297 129.366 221.921 127.713 222.142ZM126.619 214.19C125.707 214.32 125.017 214.749 124.562 215.476C124.106 216.204 123.95 217.087 124.08 218.101C124.21 219.101 124.614 219.868 125.291 220.426C125.968 220.985 126.749 221.206 127.647 221.076C128.572 220.946 129.249 220.543 129.679 219.842C130.108 219.14 130.251 218.309 130.121 217.321C129.978 216.23 129.574 215.398 128.923 214.839C128.272 214.281 127.491 214.073 126.619 214.19Z" fill="#8CAD40"/>
<path id="Vector_35" d="M112.219 223.129C110.878 223.103 109.719 222.635 108.742 221.7C107.766 220.764 107.284 219.699 107.297 218.503C107.323 217.165 107.818 216.074 108.782 215.242C109.745 214.411 111.021 214.008 112.622 214.034C113.872 214.06 115.005 214.502 115.995 215.372C116.984 216.243 117.466 217.321 117.44 218.607C117.414 219.829 116.958 220.894 116.06 221.804C115.174 222.726 113.885 223.155 112.219 223.129ZM112.336 215.112C111.412 215.099 110.669 215.424 110.11 216.074C109.55 216.736 109.263 217.568 109.237 218.594C109.224 219.595 109.498 220.426 110.084 221.076C110.669 221.726 111.412 222.064 112.323 222.077C113.26 222.09 113.99 221.791 114.51 221.167C115.031 220.543 115.305 219.738 115.318 218.737C115.331 217.633 115.07 216.762 114.497 216.113C113.95 215.45 113.221 215.125 112.336 215.112Z" fill="#8CAD40"/>
<path id="Vector_36" d="M98.9775 219.725C98.9124 220.296 99.1858 220.66 99.8108 220.816C100.175 220.92 100.41 221.011 100.501 221.102C100.592 221.193 100.618 221.31 100.605 221.44C100.579 221.739 100.332 221.869 99.8759 221.817C99.7587 221.804 99.5113 221.739 99.1598 221.609C98.8083 221.479 98.4177 221.401 98.001 221.349C97.8838 221.336 97.7406 221.336 97.5714 221.349C97.4021 221.362 97.2979 221.362 97.2589 221.362C97.0375 221.336 96.9594 221.089 97.0115 220.595C97.4151 216.918 97.5974 214.956 97.5583 214.722C97.5193 214.476 97.2198 214.255 96.647 214.047C96.3475 213.93 96.1652 213.839 96.1001 213.761C96.035 213.683 96.009 213.605 96.022 213.514C96.035 213.41 96.1131 213.319 96.2564 213.241C96.3996 213.163 96.5688 213.137 96.7772 213.163C96.8683 213.176 97.0766 213.228 97.4151 213.319C97.7536 213.41 98.001 213.462 98.1442 213.488C98.3005 213.501 98.4828 213.501 98.7041 213.462C98.9254 213.423 99.0687 213.423 99.1468 213.423C99.3291 213.449 99.4332 213.501 99.4983 213.605C99.5504 213.709 99.5634 213.943 99.5504 214.32C99.5374 214.696 99.4593 215.424 99.3421 216.49L98.9775 219.725ZM103.365 216.074C103.404 215.684 103.3 215.346 103.027 215.06C102.753 214.774 102.415 214.606 101.998 214.567C101.738 214.541 101.438 214.606 101.061 214.774C100.696 214.943 100.423 215.021 100.266 214.995C100.11 214.982 100.045 214.865 100.058 214.671C100.084 214.437 100.41 214.19 101.048 213.917C101.686 213.644 102.376 213.54 103.118 213.618C103.704 213.683 104.185 213.917 104.589 214.32C104.98 214.722 105.188 215.151 105.214 215.593C105.24 216.035 105.084 217.685 104.771 220.53C104.732 220.907 105.097 221.232 105.852 221.492C106.191 221.609 106.347 221.752 106.321 221.947C106.308 222.077 106.243 222.167 106.125 222.232C106.008 222.297 105.865 222.31 105.709 222.297C105.657 222.297 105.435 222.232 105.019 222.128C104.602 222.025 104.251 221.947 103.964 221.921C103.86 221.908 103.704 221.921 103.495 221.96C103.287 221.999 103.157 222.012 103.105 222.012C102.844 221.986 102.766 221.427 102.883 220.335L103.365 216.074Z" fill="#8CAD40"/>
<path id="Vector_37" d="M90.827 218.036L90.8531 217.698C90.814 217.685 90.5536 218.023 90.0719 218.711C89.5901 219.4 89.1475 219.855 88.7569 220.102C88.3663 220.349 88.0017 220.439 87.6502 220.362C87.3768 220.31 87.1815 220.219 87.0643 220.089C86.9471 219.959 86.895 219.842 86.9211 219.725C86.9601 219.517 87.0513 219.361 87.1684 219.257C87.2856 219.153 87.4809 219.036 87.7674 218.906C88.9261 218.348 89.8505 217.581 90.5146 216.581C91.1916 215.58 91.5952 214.723 91.7384 214.008C91.8035 213.67 91.8035 213.436 91.7384 213.293C91.6733 213.15 91.478 213.007 91.1395 212.852C90.814 212.696 90.6057 212.566 90.5146 212.449C90.4364 212.332 90.4104 212.215 90.4364 212.085C90.4885 211.851 90.6448 211.76 90.9182 211.825C91.1395 211.864 91.439 211.968 91.8165 212.124C92.1941 212.28 92.6108 212.397 93.0534 212.488C93.3529 212.553 93.6654 212.579 93.9909 212.566C94.3164 212.553 94.5247 212.566 94.6028 212.579C94.8242 212.618 94.9934 212.709 95.1106 212.813C95.2278 212.93 95.2668 213.046 95.2408 213.176C95.2278 213.267 95.1627 213.345 95.0715 213.41C94.9804 213.475 94.746 213.527 94.3815 213.566C94.0169 213.605 93.7695 213.683 93.6654 213.787C93.5612 213.891 93.444 214.242 93.3138 214.865L92.5847 218.452C92.5327 218.672 92.5457 218.893 92.6238 219.101C92.6889 219.309 92.8842 219.491 93.1836 219.647C93.4831 219.803 93.6524 219.933 93.7044 220.024C93.7435 220.102 93.7565 220.193 93.7435 220.284C93.6914 220.543 93.4701 220.647 93.1055 220.569C93.0014 220.543 92.8321 220.491 92.5978 220.401C92.3634 220.31 92.1941 220.258 92.103 220.245C92.0249 220.232 91.8947 220.219 91.7124 220.219C91.5301 220.219 91.3088 220.193 91.0614 220.141C90.6317 220.05 90.5146 219.556 90.6968 218.646L90.827 218.036Z" fill="#8CAD40"/>
<path id="Vector_38" d="M79.2914 214.995L79.3435 214.658C79.3044 214.645 79.005 214.956 78.4451 215.567C77.8852 216.191 77.4035 216.606 76.9869 216.801C76.5702 217.009 76.1927 217.048 75.8541 216.944C75.5937 216.866 75.4115 216.749 75.3073 216.619C75.2031 216.49 75.1641 216.36 75.2031 216.243C75.2682 216.048 75.3724 215.892 75.5026 215.814C75.6328 215.736 75.8411 215.632 76.1276 215.528C77.3384 215.099 78.3409 214.437 79.1221 213.514C79.9033 212.592 80.3981 211.786 80.6325 211.084C80.7366 210.76 80.7627 210.526 80.7106 210.37C80.6585 210.227 80.4762 210.058 80.1637 209.863C79.8513 209.668 79.656 209.512 79.5909 209.395C79.5258 209.265 79.5127 209.148 79.5518 209.019C79.6299 208.798 79.7992 208.72 80.0596 208.811C80.2809 208.876 80.5674 209.006 80.9189 209.2C81.2704 209.395 81.674 209.564 82.1167 209.694C82.4032 209.785 82.7156 209.85 83.0411 209.876C83.3666 209.902 83.5619 209.928 83.6531 209.954C83.8744 210.019 84.0307 210.123 84.1348 210.24C84.239 210.357 84.265 210.487 84.226 210.617C84.1999 210.708 84.1348 210.786 84.0307 210.838C83.9265 210.89 83.7052 210.916 83.3276 210.916C82.95 210.916 82.7156 210.968 82.5985 211.058C82.4813 211.149 82.325 211.487 82.1428 212.098L81.01 215.58C80.9449 215.801 80.9319 216.009 80.971 216.23C81.023 216.438 81.1793 216.645 81.4657 216.84C81.7522 217.035 81.9084 217.178 81.9344 217.269C81.9735 217.36 81.9735 217.451 81.9475 217.529C81.8693 217.789 81.648 217.854 81.2834 217.737C81.1793 217.711 81.023 217.633 80.8017 217.516C80.5804 217.399 80.4241 217.334 80.333 217.295C80.2549 217.269 80.1247 217.243 79.9424 217.217C79.7601 217.191 79.5518 217.139 79.3044 217.061C78.8878 216.931 78.8227 216.425 79.1091 215.541L79.2914 214.995Z" fill="#8CAD40"/>
<path id="Vector_39" d="M69.3702 214.346C68.1333 213.826 67.248 212.956 66.6881 211.721C66.1282 210.487 66.0892 209.317 66.5579 208.226C67.0787 206.992 67.951 206.173 69.1489 205.757C70.3597 205.355 71.6877 205.459 73.159 206.082C74.3178 206.576 75.1901 207.407 75.776 208.59C76.3619 209.772 76.401 210.955 75.9062 212.124C75.4245 213.254 74.6042 214.06 73.4324 214.567C72.2476 215.073 70.8935 214.995 69.3702 214.346ZM72.495 206.953C71.6487 206.589 70.8284 206.615 70.0603 207.005C69.2921 207.407 68.7062 208.07 68.3026 209.019C67.912 209.941 67.8599 210.812 68.1593 211.643C68.4588 212.462 69.0187 213.059 69.8519 213.41C70.7113 213.774 71.5055 213.761 72.2216 213.384C72.9377 213.007 73.4975 212.358 73.8881 211.435C74.3178 210.422 74.3959 209.512 74.1225 208.694C73.8491 207.875 73.3022 207.304 72.495 206.953Z" fill="#8CAD40"/>
<path id="Vector_40" d="M59.2146 209.421C58.0429 208.785 57.2486 207.823 56.819 206.537C56.3893 205.251 56.4674 204.094 57.0403 203.042C57.6913 201.859 58.6288 201.132 59.8787 200.859C61.1286 200.586 62.4436 200.82 63.8367 201.587C64.9434 202.184 65.7246 203.107 66.1803 204.341C66.649 205.575 66.5709 206.758 65.946 207.875C65.3601 208.941 64.4487 209.668 63.2378 210.058C62.0139 210.435 60.6729 210.227 59.2146 209.421ZM63.0816 202.379C62.2743 201.937 61.4671 201.872 60.6599 202.184C59.8526 202.496 59.2016 203.107 58.7069 204.003C58.2251 204.887 58.0819 205.744 58.2902 206.602C58.4986 207.446 59.0063 208.096 59.8005 208.525C60.6208 208.98 61.402 209.045 62.1572 208.746C62.9123 208.447 63.5373 207.849 64.019 206.979C64.5528 206.017 64.7221 205.108 64.5268 204.276C64.3315 203.445 63.8497 202.808 63.0816 202.379Z" fill="#8CAD40"/>
<path id="Vector_41" d="M54.2541 199.339C54.6316 198.78 54.84 198.403 54.892 198.208C54.9441 198.014 54.9051 197.871 54.7618 197.78C54.5405 197.637 54.189 197.572 53.7202 197.611C53.2515 197.65 52.9521 197.624 52.8349 197.546C52.7437 197.481 52.6917 197.39 52.6786 197.273C52.6656 197.156 52.6917 197.026 52.7698 196.909C52.9 196.714 53.3687 196.584 54.1759 196.506C54.9832 196.428 55.5951 196.519 55.9987 196.792C57.0533 197.494 57.0664 198.624 56.0378 200.17L53.4598 204.029C53.3817 204.159 53.3427 204.237 53.3687 204.263C53.3947 204.289 53.577 204.419 53.9155 204.653C54.189 204.835 54.3452 204.991 54.3843 205.134C54.4233 205.277 54.3973 205.42 54.2931 205.562C54.202 205.692 54.1108 205.757 54.0067 205.77C53.9025 205.783 53.7202 205.744 53.4859 205.666C53.2515 205.588 53.0432 205.549 52.8739 205.549C52.7047 205.549 52.4443 205.614 52.0927 205.718C51.7282 205.835 51.3636 206.082 50.9861 206.459C50.6085 206.849 50.1398 207.446 49.5929 208.278C49.3325 208.668 49.0851 208.798 48.8768 208.655C48.6294 208.499 48.5123 208.33 48.5253 208.187C48.5383 208.044 48.6294 207.836 48.8117 207.563L51.0511 204.211C51.1423 204.081 51.1032 203.951 50.921 203.834L49.4888 202.886C49.2023 202.691 49.1372 202.47 49.3065 202.223C49.5018 201.937 49.8012 201.924 50.2179 202.197L51.4678 203.029C51.5589 203.094 51.624 203.12 51.6631 203.094C51.7021 203.081 51.7672 203.003 51.8454 202.886L54.2541 199.339Z" fill="#8CAD40"/>
<path id="Vector_42" d="M46.9629 199.235C47.0801 199.092 47.1191 198.884 47.1061 198.624C47.0931 198.364 46.8587 197.754 46.4161 196.805C45.9734 195.857 45.7781 195.09 45.8041 194.518C45.8302 193.947 46.0124 193.453 46.3249 193.037C46.8197 192.401 47.4837 192.089 48.317 192.128C49.1502 192.167 49.9965 192.505 50.8428 193.167C51.3116 193.531 51.7022 193.999 52.0146 194.57C52.3271 195.142 52.3922 195.532 52.236 195.74C52.1058 195.909 51.9495 196.13 51.7803 196.402C51.611 196.675 51.4678 196.883 51.3506 197.039C51.1032 197.351 50.8428 197.403 50.5564 197.169C50.4783 197.104 50.4262 197.013 50.4002 196.883C50.3871 196.753 50.4522 196.441 50.6085 195.922C50.7647 195.402 50.7908 194.999 50.6866 194.674C50.5824 194.35 50.3871 194.103 50.1267 193.882C49.7882 193.622 49.4237 193.518 49.02 193.557C48.6164 193.596 48.2779 193.791 48.0045 194.142C47.8222 194.376 47.7441 194.648 47.7441 194.973C47.7441 195.298 47.9784 195.896 48.4211 196.779C48.8638 197.663 49.0721 198.351 49.0461 198.832C49.007 199.313 48.8508 199.742 48.5513 200.118C48.1738 200.612 47.6139 200.846 46.8978 200.833C46.1687 200.807 45.5047 200.573 44.8927 200.092C44.3849 199.703 43.9553 199.222 43.6038 198.676C43.2522 198.131 43.1611 197.754 43.3173 197.546C43.4085 197.429 43.5126 197.26 43.6298 197.065C43.747 196.87 43.8381 196.714 43.9293 196.61C44.0334 196.48 44.1636 196.389 44.3068 196.338C44.45 196.286 44.5802 196.299 44.6844 196.376C44.8276 196.493 44.9057 196.61 44.9188 196.727C44.9188 196.844 44.8797 197.026 44.7886 197.247C44.6974 197.468 44.6584 197.676 44.6974 197.884C44.7235 198.079 44.8016 198.299 44.9188 198.533C45.0359 198.767 45.2182 198.975 45.4526 199.157C45.6869 199.339 45.9734 199.43 46.2989 199.443C46.6244 199.456 46.8327 199.404 46.9629 199.235Z" fill="#8CAD40"/>
<path id="Vector_43" d="M33.6305 177.745C33.6956 177.758 33.7867 177.745 33.9169 177.706C34.0341 177.667 34.1383 177.667 34.2294 177.68C34.3205 177.693 34.4117 177.771 34.5289 177.913C34.62 178.017 34.7242 178.212 34.8544 178.485C34.9846 178.758 35.1017 178.953 35.2059 179.096C35.3101 179.239 35.4793 179.395 35.7267 179.59C35.9741 179.784 36.1433 179.94 36.2345 180.057C36.3516 180.2 36.4167 180.356 36.4298 180.525C36.4428 180.694 36.3777 180.824 36.2605 180.928C36.1824 180.993 36.0782 181.019 35.9741 181.006C35.8699 180.993 35.6225 180.824 35.258 180.512C34.8934 180.2 34.5419 180.057 34.2164 180.096C33.8909 180.135 33.5914 180.265 33.292 180.499L23.6051 188.217C23.0843 188.633 22.8109 189.048 22.7979 189.451C22.7849 189.685 22.889 189.971 23.0843 190.309C23.2796 190.647 23.3708 190.88 23.3447 190.997C23.3187 191.114 23.2536 191.218 23.1625 191.296C23.0583 191.374 22.9281 191.387 22.7588 191.309C22.5896 191.231 22.4724 191.153 22.3813 191.036C22.2771 190.906 22.1599 190.699 22.0167 190.413C21.8735 190.127 21.7563 189.919 21.6652 189.802C21.574 189.685 21.4308 189.542 21.2225 189.373C21.0142 189.204 20.8709 189.061 20.7928 188.957C20.6366 188.763 20.5845 188.594 20.6106 188.425C20.6496 188.256 20.8059 188.061 21.0923 187.827L32.1332 179.031C32.5238 178.719 32.68 178.199 32.6019 177.485C32.5238 176.757 32.3155 176.185 31.977 175.757C31.5864 175.263 30.9614 174.912 30.1151 174.704C29.2688 174.483 28.3574 174.769 27.3939 175.536C26.6388 176.133 26.1831 176.861 25.9878 177.719C25.8055 178.576 25.9878 179.343 26.5346 180.031C26.7429 180.291 27.0294 180.512 27.407 180.668C27.7715 180.837 27.9929 180.954 28.058 181.045C28.1231 181.123 28.1491 181.227 28.1491 181.357C28.1491 181.487 28.11 181.577 28.0449 181.629C27.7585 181.85 27.3158 181.811 26.7169 181.5C26.118 181.188 25.6623 180.85 25.3758 180.473C24.5556 179.447 24.2301 178.29 24.4254 177.017C24.6207 175.744 25.2456 174.678 26.3003 173.834C27.2768 173.054 28.3704 172.768 29.5683 172.989C30.7791 173.197 31.7817 173.821 32.6019 174.834C33.0185 175.354 33.331 176.159 33.5524 177.29L33.6305 177.745Z" fill="#8CAD40"/>
<path id="Vector_44" d="M22.5375 164.894C23.0323 164.583 23.1625 164.05 22.9411 163.27C22.889 163.075 22.863 162.919 22.876 162.803C22.889 162.686 22.9802 162.569 23.1494 162.465C23.2406 162.413 23.3447 162.413 23.488 162.478C23.6182 162.543 23.7223 162.634 23.8004 162.751C23.8786 162.881 23.9567 163.075 24.0478 163.335C24.1259 163.595 24.2041 163.79 24.2952 163.933C24.3994 164.089 24.5556 164.271 24.7639 164.466C24.9722 164.661 25.1024 164.803 25.1545 164.881C25.2196 164.972 25.2456 165.089 25.2326 165.232C25.2196 165.362 25.1806 165.453 25.1155 165.505C25.0113 165.57 24.9722 165.648 25.0113 165.713C25.0373 165.765 25.1024 165.804 25.1936 165.856C26.157 166.324 26.9252 166.999 27.4851 167.896C27.7585 168.312 27.9408 168.857 28.058 169.507C28.1751 170.17 28.097 170.793 27.8496 171.391C27.5892 171.989 27.1335 172.495 26.4695 172.924C25.7664 173.366 24.9201 173.431 23.9437 173.093C22.9672 172.755 22.1469 172.067 21.4699 171.001C21.2485 170.637 21.0923 170.183 21.0142 169.624C20.9361 169.065 21.0142 168.727 21.2225 168.584C21.3266 168.519 21.4308 168.506 21.548 168.558C21.6652 168.61 21.7693 168.701 21.8474 168.831C21.8995 168.922 21.9516 169.13 21.9907 169.468C22.0297 169.806 22.1339 170.105 22.3162 170.377C22.6677 170.936 23.1234 171.287 23.6833 171.456C24.2431 171.612 24.803 171.521 25.3498 171.17C25.9878 170.767 26.3393 170.248 26.4174 169.611C26.4956 168.974 26.3523 168.377 26.0138 167.831C25.7013 167.337 25.2456 166.986 24.6598 166.765C24.0739 166.558 23.501 166.622 22.9541 166.96L20.1939 168.701C19.7773 168.961 19.5299 169.312 19.4388 169.754C19.3606 170.196 19.4518 170.637 19.7512 171.105C20.1288 171.69 20.6757 172.145 21.4048 172.469C21.6521 172.573 21.7954 172.664 21.8474 172.729C21.9516 172.898 21.9907 173.054 21.9776 173.223C21.9646 173.392 21.8865 173.522 21.7563 173.6C21.4178 173.808 20.9491 173.691 20.3371 173.223C19.7252 172.768 19.1784 172.171 18.7227 171.456C18.1628 170.572 17.9284 169.702 18.0326 168.883C18.1368 168.052 18.5013 167.454 19.1133 167.064L22.5375 164.894Z" fill="#8CAD40"/>
<path id="Vector_45" d="M17.8503 154.916C17.7462 154.708 17.8633 154.526 18.2019 154.357C18.4232 154.253 18.8789 154.474 19.582 155.033C20.2851 155.591 20.8319 156.267 21.2355 157.059C21.8865 158.372 22.0558 159.684 21.7303 161.022C21.4048 162.361 20.6366 163.322 19.4257 163.92C18.3581 164.452 17.1863 164.478 15.9364 164.011C14.6865 163.543 13.749 162.685 13.1241 161.451C12.7986 160.788 12.5512 159.97 12.408 158.995C12.2648 158.021 12.2908 157.475 12.5122 157.358C12.9158 157.163 13.2282 156.969 13.4626 156.8C13.697 156.631 13.8272 156.54 13.8662 156.514C14.1917 156.358 14.4261 156.423 14.5693 156.722C14.6865 156.943 14.5563 157.228 14.1917 157.579C13.8272 157.917 13.6058 158.359 13.5537 158.891C13.5017 159.424 13.6188 159.983 13.9183 160.568C14.2959 161.308 14.9078 161.854 15.7802 162.218C16.6525 162.581 17.5899 162.504 18.5925 162.01C19.5169 161.542 20.0898 160.814 20.3241 159.801C20.5585 158.801 20.4804 157.904 20.0898 157.137C19.9465 156.852 19.7643 156.579 19.5429 156.319C19.3216 156.059 19.0091 155.786 18.5925 155.526C18.1758 155.292 17.9284 155.085 17.8503 154.916Z" fill="#8CAD40"/>
<path id="Vector_46" d="M14.1527 145.093C14.2829 144.859 14.2959 144.612 14.2047 144.365C14.1527 144.222 13.9704 144.093 13.6709 143.989C13.3715 143.885 13.2022 143.768 13.1501 143.638C13.1111 143.521 13.1241 143.404 13.2022 143.274C13.2803 143.144 13.3715 143.053 13.5017 143.014C13.8792 142.871 14.3349 142.936 14.8688 143.209C15.4026 143.482 15.7281 143.82 15.8713 144.196C16.0015 144.547 15.9885 145.015 15.8192 145.613C15.663 146.21 15.2073 147.172 14.4651 148.484C13.9313 149.433 13.684 149.978 13.7491 150.121C13.7751 150.173 13.8792 150.251 14.0876 150.342C14.2959 150.433 14.5042 150.537 14.7255 150.654C14.9469 150.771 15.1031 150.81 15.2073 150.797C15.2984 150.784 15.5718 150.693 16.0145 150.524C16.2228 150.446 16.3791 150.329 16.4832 150.173C16.5874 150.017 16.6004 149.758 16.5223 149.394C16.4442 149.03 16.4312 148.783 16.4963 148.666C16.5614 148.549 16.6655 148.471 16.7957 148.419C16.9129 148.38 17.0171 148.38 17.1082 148.419C17.1993 148.458 17.2905 148.601 17.3816 148.835C17.4728 149.056 17.5639 149.407 17.6811 149.874C17.7852 150.342 17.8894 150.693 17.9805 150.914C18.0586 151.122 18.2019 151.421 18.4102 151.81C18.6185 152.2 18.7617 152.499 18.8398 152.707C19.0221 153.188 18.957 153.473 18.6706 153.577C18.5274 153.629 18.4102 153.629 18.293 153.59C18.1758 153.551 18.0326 153.344 17.8373 152.98C17.655 152.616 17.4467 152.408 17.2124 152.369C16.978 152.33 16.7436 152.356 16.4832 152.447L4.16638 157.086C3.95806 157.164 3.7888 157.28 3.68464 157.449C3.58048 157.618 3.54142 157.904 3.5935 158.307C3.64558 158.723 3.64558 158.983 3.58048 159.099C3.51538 159.216 3.42424 159.294 3.29404 159.346C3.17686 159.385 3.05969 159.359 2.92949 159.255C2.79929 159.151 2.72117 159.047 2.66909 158.918C2.61701 158.788 2.57795 158.58 2.55191 158.294C2.52587 158.008 2.47379 157.787 2.42171 157.644C2.35661 157.475 2.25245 157.28 2.10923 157.047C1.96601 156.813 1.87487 156.657 1.84883 156.579C1.79675 156.423 1.78373 156.306 1.83581 156.202C1.88789 156.072 2.07017 155.929 2.35661 155.76C2.65607 155.591 3.29404 155.332 4.28356 154.955L13.2022 151.616C13.3975 151.551 13.4626 151.447 13.4105 151.304C13.3715 151.213 12.9939 151.005 12.2648 150.693L10.1686 149.77C10.0644 149.719 9.98629 149.693 9.93421 149.719C9.89515 149.732 9.86911 149.848 9.85609 150.056C9.85609 150.264 9.77797 150.394 9.62173 150.459C9.46549 150.524 9.33529 150.524 9.23113 150.485C9.12697 150.446 9.03583 150.303 8.9447 150.069C8.89262 149.913 8.8145 149.68 8.73638 149.368C8.65826 149.056 8.58014 148.809 8.52806 148.64C8.44994 148.432 8.30672 148.133 8.11142 147.744C7.9031 147.341 7.75988 147.042 7.69478 146.847C7.61666 146.626 7.59062 146.418 7.61666 146.223C7.6427 146.029 7.74686 145.899 7.9031 145.847C8.20256 145.73 8.44994 145.964 8.65826 146.509C8.97074 147.328 9.24415 147.874 9.49153 148.12C9.73891 148.38 10.1425 148.627 10.6763 148.874C11.2102 149.121 11.5226 149.251 11.5877 149.277C11.6528 149.303 11.744 149.29 11.8481 149.264C12.0304 149.199 12.1867 149.043 12.3038 148.796L14.1527 145.093Z" fill="#8CAD40"/>
<path id="Vector_47" d="M10.3508 135.712C11.0149 135.556 11.4185 135.426 11.6008 135.322C11.77 135.218 11.8351 135.088 11.7961 134.919C11.731 134.66 11.5226 134.387 11.1581 134.075C10.7935 133.763 10.5852 133.555 10.5592 133.425C10.5331 133.321 10.5592 133.217 10.6373 133.113C10.7154 133.009 10.8196 132.945 10.9498 132.919C11.1711 132.867 11.6008 133.087 12.2518 133.594C12.9028 134.101 13.2803 134.582 13.3845 135.049C13.6709 136.284 12.9028 137.115 11.093 137.531L6.57507 138.584C6.43185 138.622 6.35373 138.661 6.35373 138.7C6.35373 138.739 6.39279 138.96 6.48393 139.363C6.56205 139.675 6.56205 139.896 6.49695 140.026C6.43185 140.156 6.31467 140.247 6.13239 140.286C5.97615 140.325 5.85897 140.299 5.78085 140.234C5.70273 140.169 5.59857 140.026 5.46837 139.792C5.35119 139.571 5.22099 139.402 5.10381 139.298C4.98663 139.194 4.75227 139.051 4.41376 138.895C4.07524 138.739 3.63256 138.661 3.09874 138.687C2.56493 138.713 1.79675 138.83 0.833274 139.064C0.364557 139.168 0.104158 139.103 0.0520782 138.843C-0.0130215 138.558 0.0130184 138.363 0.117178 138.259C0.234357 138.155 0.442676 138.077 0.742135 137.999L4.67415 137.089C4.83039 137.05 4.88247 136.933 4.84341 136.725L4.45282 135.062C4.3747 134.725 4.47886 134.517 4.77831 134.452C5.11683 134.374 5.35119 134.582 5.45535 135.062L5.79387 136.531C5.81991 136.635 5.85897 136.7 5.89803 136.713C5.93709 136.725 6.02823 136.725 6.17145 136.687L10.3508 135.712Z" fill="#8CAD40"/>
<path id="Vector_48" d="M2.77325 128.072C2.57795 126.747 2.87741 125.538 3.63256 124.421C4.40074 123.304 5.37723 122.667 6.56205 122.498C7.9031 122.303 9.06188 122.615 10.0254 123.434C11.0018 124.252 11.6008 125.448 11.8221 127.02C12.0044 128.254 11.731 129.436 11.0279 130.554C10.3248 131.671 9.33529 132.308 8.05934 132.503C6.84849 132.672 5.72877 132.399 4.68718 131.658C3.64558 130.918 3.02063 129.722 2.77325 128.072ZM10.7414 126.916C10.6112 126.006 10.1686 125.318 9.43945 124.863C8.6843 124.421 7.81196 124.265 6.79641 124.408C5.79387 124.551 5.0257 124.967 4.46584 125.642C3.919 126.318 3.69766 127.111 3.82786 128.007C3.95806 128.93 4.3747 129.605 5.07778 130.021C5.78085 130.437 6.62715 130.58 7.60364 130.437C8.69732 130.281 9.51757 129.878 10.0774 129.215C10.6503 128.553 10.8586 127.786 10.7414 126.916Z" fill="#8CAD40"/>
<path id="Vector_49" d="M1.65353 112.818C1.62749 111.48 2.07017 110.311 2.96854 109.31C3.86692 108.297 4.92153 107.79 6.11936 107.764C7.46042 107.738 8.56711 108.193 9.42643 109.128C10.2857 110.064 10.7284 111.324 10.7545 112.922C10.7805 114.17 10.3639 115.313 9.51757 116.326C8.67127 117.34 7.60364 117.86 6.32768 117.873C5.10381 117.899 4.02316 117.47 3.08572 116.599C2.14829 115.729 1.67957 114.481 1.65353 112.818ZM9.69985 112.675C9.68683 111.753 9.33529 111.025 8.65825 110.48C7.98122 109.934 7.13492 109.674 6.10635 109.7C5.10381 109.713 4.28355 110.025 3.64558 110.622C3.0076 111.22 2.69512 111.974 2.72116 112.883C2.73418 113.819 3.05968 114.533 3.71068 115.04C4.34865 115.547 5.16891 115.794 6.17144 115.768C7.27814 115.755 8.13745 115.456 8.77543 114.871C9.40039 114.286 9.71287 113.559 9.69985 112.675Z" fill="#8CAD40"/>
<path id="Vector_50" d="M8.65826 103.697C9.04886 103.736 9.38737 103.619 9.67381 103.347C9.96025 103.074 10.1295 102.736 10.1686 102.32C10.1946 102.06 10.1165 101.761 9.94723 101.385C9.77797 101.008 9.69985 100.761 9.71287 100.592C9.72589 100.436 9.83005 100.358 10.0254 100.384C10.2597 100.41 10.5071 100.735 10.7935 101.359C11.08 101.982 11.1841 102.671 11.106 103.425C11.0409 104.009 10.8196 104.503 10.4159 104.893C10.0123 105.283 9.58267 105.503 9.14 105.529C8.69732 105.555 7.04379 105.425 4.1794 105.127C3.80182 105.088 3.47633 105.451 3.21593 106.218C3.11177 106.556 2.95553 106.712 2.76023 106.699C2.63003 106.686 2.53889 106.621 2.47379 106.504C2.40869 106.387 2.38265 106.244 2.40869 106.088C2.40869 106.036 2.47379 105.815 2.57795 105.399C2.68211 104.984 2.74721 104.633 2.78627 104.347C2.79929 104.243 2.78627 104.087 2.74721 103.879C2.70815 103.671 2.69513 103.541 2.69513 103.489C2.72117 103.23 3.28103 103.152 4.3747 103.256L8.65826 103.697ZM4.94758 99.3317C4.3747 99.2798 4.01014 99.5526 3.8539 100.163C3.76276 100.54 3.6586 100.761 3.56746 100.852C3.47633 100.943 3.35915 100.982 3.22895 100.969C2.92949 100.943 2.79929 100.696 2.85137 100.241C2.86439 100.124 2.92949 99.8774 3.04667 99.5266C3.16385 99.1758 3.25499 98.786 3.29405 98.3702C3.30707 98.2533 3.30707 98.1104 3.29405 97.9415C3.28103 97.7726 3.26801 97.6686 3.28103 97.6296C3.30707 97.4088 3.55444 97.3308 4.0492 97.3828C7.73384 97.7596 9.69985 97.9155 9.94723 97.8765C10.1946 97.8375 10.4159 97.5257 10.6112 96.967C10.7284 96.6682 10.8196 96.4863 10.8847 96.4213C10.9498 96.3563 11.0409 96.3303 11.132 96.3433C11.2362 96.3563 11.3273 96.4343 11.4055 96.5772C11.4836 96.7201 11.5096 96.889 11.4836 97.0969C11.4706 97.1879 11.4185 97.3958 11.3273 97.7336C11.2362 98.0714 11.1841 98.3183 11.1711 98.4612C11.1581 98.6171 11.1711 98.799 11.1971 99.0199C11.2362 99.2408 11.2492 99.3837 11.2362 99.4617C11.2232 99.6436 11.1581 99.7475 11.0539 99.8125C10.9498 99.8774 10.7154 99.8904 10.3378 99.8644C9.96025 99.8514 9.23113 99.7865 8.1635 99.6695L4.94758 99.3317Z" fill="#8CAD40"/>
<path id="Vector_51" d="M6.57507 91.2111L6.91359 91.2241C6.92661 91.1851 6.58809 90.9253 5.89803 90.4445C5.20798 89.9638 4.73926 89.535 4.49188 89.1452C4.2445 88.7554 4.15336 88.3916 4.21846 88.0408C4.27054 87.768 4.36168 87.5731 4.47886 87.4561C4.59604 87.3392 4.72624 87.2872 4.84342 87.3132C5.05174 87.3652 5.20798 87.4431 5.31214 87.5731C5.4163 87.69 5.53347 87.8849 5.67669 88.1577C6.23655 89.3141 7.03077 90.2236 8.0333 90.8863C9.03584 91.5489 9.90817 91.9517 10.6243 92.0946C10.9628 92.1596 11.1971 92.1596 11.3404 92.0946C11.4836 92.0297 11.6268 91.8348 11.77 91.497C11.9263 91.1721 12.0565 90.9642 12.1736 90.8733C12.2908 90.7823 12.408 90.7564 12.5382 90.7823C12.7726 90.8213 12.8637 90.9902 12.8116 91.2631C12.7726 91.484 12.6684 91.7828 12.5252 92.1596C12.382 92.5364 12.2648 92.9522 12.1736 93.4069C12.1085 93.7058 12.0955 94.0176 12.0955 94.3424C12.1085 94.6672 12.1085 94.8751 12.0825 94.9531C12.0434 95.174 11.9653 95.3429 11.8481 95.4598C11.731 95.5768 11.6138 95.6287 11.4836 95.6027C11.3924 95.5898 11.3143 95.5248 11.2492 95.4338C11.1841 95.3429 11.132 95.109 11.08 94.7452C11.0279 94.3814 10.9498 94.1345 10.8456 94.0436C10.7414 93.9396 10.3769 93.8357 9.76495 93.7058L6.17145 93.0041C5.93709 92.9652 5.72877 92.9782 5.52045 93.0431C5.31214 93.1081 5.14288 93.303 4.97362 93.6018C4.81738 93.9007 4.68718 94.0696 4.60906 94.1215C4.53094 94.1735 4.4398 94.1865 4.34866 94.1605C4.08826 94.1085 3.9841 93.9007 4.06222 93.5239C4.08826 93.4199 4.14034 93.251 4.21846 93.0171C4.3096 92.7833 4.36168 92.6144 4.3747 92.5234C4.38772 92.4454 4.40074 92.3155 4.40074 92.1336C4.40074 91.9517 4.42678 91.7308 4.47886 91.484C4.55698 91.0552 5.06476 90.9383 5.96313 91.1072L6.57507 91.2111Z" fill="#8CAD40"/>
<path id="Vector_52" d="M10.8065 75.8662L11.1451 75.9312C11.1581 75.8922 10.8586 75.5934 10.2597 75.0087C9.64777 74.437 9.25718 73.9432 9.06188 73.5145C8.86658 73.0987 8.82752 72.7219 8.95772 72.3841C9.04886 72.1242 9.16604 71.9423 9.30926 71.8384C9.45247 71.7344 9.56965 71.7085 9.68683 71.7474C9.88213 71.8124 10.0254 71.9163 10.1165 72.0593C10.2076 72.1892 10.2988 72.4101 10.3899 72.6959C10.7805 73.9173 11.4185 74.9307 12.3169 75.7363C13.2152 76.5419 14.0095 77.0616 14.6995 77.3084C15.025 77.4254 15.2594 77.4644 15.4026 77.4124C15.5458 77.3734 15.7281 77.1915 15.9234 76.8927C16.1187 76.5938 16.2879 76.3989 16.4181 76.334C16.5483 76.269 16.6655 76.256 16.7957 76.295C17.0171 76.3729 17.0822 76.5418 16.991 76.8147C16.9129 77.0226 16.7697 77.3084 16.5744 77.6592C16.3661 78.0101 16.1968 78.3998 16.0406 78.8286C15.9364 79.1145 15.8713 79.4263 15.8322 79.7381C15.7932 80.063 15.7671 80.2579 15.7281 80.3488C15.65 80.5567 15.5458 80.7126 15.4286 80.8166C15.2984 80.9205 15.1812 80.9465 15.051 80.9075C14.9599 80.8685 14.8948 80.8036 14.8427 80.7126C14.7906 80.6087 14.7776 80.3748 14.7776 80.011C14.7776 79.6342 14.7386 79.3873 14.6604 79.2834C14.5693 79.1664 14.2308 78.9975 13.6319 78.7896L10.1556 77.5683C9.93421 77.4903 9.72589 77.4773 9.51757 77.5163C9.30926 77.5553 9.10094 77.7112 8.89262 77.9841C8.6843 78.2569 8.54108 78.4128 8.44994 78.4388C8.3588 78.4648 8.26766 78.4778 8.18954 78.4388C7.92914 78.3479 7.87706 78.127 7.99424 77.7632C8.0333 77.6592 8.11142 77.5033 8.2286 77.2825C8.34578 77.0616 8.4239 76.9057 8.46296 76.8147C8.489 76.7367 8.51504 76.6068 8.5541 76.4249C8.58014 76.243 8.64524 76.0351 8.72336 75.8012C8.86658 75.3855 9.37435 75.3465 10.2467 75.6453L10.8065 75.8662Z" fill="#8CAD40"/>
<path id="Vector_53" d="M11.731 66.0045C12.2908 64.7961 13.1892 63.9256 14.4391 63.4059C15.689 62.8862 16.8608 62.8732 17.9545 63.3669C19.1784 63.9256 19.9726 64.8091 20.3502 66.0305C20.7277 67.2388 20.5715 68.5771 19.9075 70.0193C19.3867 71.1627 18.5274 72.0073 17.3165 72.553C16.1187 73.0987 14.9339 73.1117 13.7751 72.579C12.6684 72.0722 11.8742 71.2277 11.4055 70.0453C10.9367 68.863 11.0409 67.5117 11.731 66.0045ZM19.0612 69.3307C19.4518 68.4862 19.4518 67.6806 19.0742 66.901C18.6966 66.1214 18.0456 65.5237 17.1082 65.095C16.1968 64.6792 15.3245 64.6012 14.4912 64.8741C13.6579 65.147 13.059 65.6927 12.6684 66.5112C12.2778 67.3558 12.2648 68.1483 12.6293 68.8759C12.9939 69.6036 13.6189 70.1753 14.5302 70.591C15.5328 71.0458 16.4442 71.1497 17.2644 70.9029C18.0847 70.669 18.6836 70.1363 19.0612 69.3307Z" fill="#8CAD40"/>
<path id="Vector_54" d="M16.978 56C17.655 54.8566 18.6445 54.0771 19.9335 53.6873C21.2225 53.2975 22.3943 53.4014 23.4229 54.0121C24.5816 54.6877 25.2847 55.6492 25.5321 56.8966C25.7795 58.1439 25.493 59.4562 24.6858 60.8204C24.0478 61.8989 23.1104 62.6525 21.8605 63.0812C20.6106 63.51 19.4257 63.3931 18.3321 62.7434C17.2775 62.1197 16.5744 61.1972 16.2228 59.9759C15.8843 58.7675 16.1317 57.4293 16.978 56ZM23.9176 60.0539C24.3863 59.2613 24.4775 58.4557 24.178 57.6372C23.8786 56.8316 23.2927 56.156 22.4073 55.6362C21.535 55.1295 20.6757 54.9606 19.8163 55.1425C18.957 55.3244 18.306 55.8051 17.8373 56.5977C17.3686 57.4033 17.2644 58.1829 17.5509 58.9494C17.8373 59.716 18.4102 60.3527 19.2695 60.8464C20.22 61.4051 21.1183 61.6 21.9646 61.4311C22.8239 61.2882 23.4619 60.8204 23.9176 60.0539Z" fill="#8CAD40"/>
<path id="Vector_55" d="M27.2377 51.3224C27.7845 51.7122 28.1621 51.9331 28.3574 51.9981C28.5527 52.05 28.6959 52.0111 28.7871 51.8811C28.9433 51.6732 29.0084 51.3224 28.9954 50.8417C28.9824 50.361 29.0084 50.0751 29.0865 49.9582C29.1516 49.8672 29.2428 49.8282 29.373 49.8152C29.5032 49.8023 29.6203 49.8412 29.7375 49.9192C29.9198 50.0491 30.05 50.5169 30.1021 51.3354C30.1542 52.154 30.05 52.7517 29.7636 53.1415C29.0214 54.1809 27.9017 54.1549 26.3784 53.0765L22.5896 50.3999C22.4594 50.309 22.3813 50.283 22.3552 50.309C22.3162 50.335 22.186 50.5169 21.9516 50.8547C21.7693 51.1145 21.6001 51.2705 21.4568 51.3094C21.3136 51.3484 21.1704 51.3094 21.0272 51.2055C20.897 51.1145 20.8319 51.0236 20.8319 50.9067C20.8319 50.8027 20.871 50.6338 20.9491 50.3869C21.0402 50.1531 21.0793 49.9452 21.0793 49.7893C21.0793 49.6333 21.0272 49.3605 20.923 48.9967C20.8189 48.6329 20.5845 48.2561 20.2069 47.8663C19.8294 47.4765 19.2304 46.9958 18.4232 46.4241C18.0326 46.1512 17.9154 45.9043 18.0717 45.6965C18.2409 45.4626 18.3972 45.3456 18.5534 45.3586C18.7096 45.3716 18.9049 45.4756 19.1653 45.6575L22.4594 47.9832C22.5896 48.0742 22.7198 48.0352 22.837 47.8663L23.8265 46.476C24.0218 46.1902 24.2561 46.1382 24.4905 46.3201C24.7769 46.528 24.7769 46.8269 24.4905 47.2296L23.6182 48.464C23.5531 48.5549 23.527 48.6199 23.54 48.6589C23.5531 48.6978 23.6182 48.7628 23.7353 48.8408L27.2377 51.3224Z" fill="#8CAD40"/>
<path id="Vector_56" d="M27.5241 44.0854C27.6674 44.2024 27.8627 44.2544 28.1231 44.2414C28.3835 44.2284 28.9954 44.0205 29.9719 43.6177C30.9484 43.2149 31.7166 43.033 32.2764 43.072C32.8363 43.111 33.331 43.3059 33.7346 43.6437C34.3596 44.1634 34.646 44.826 34.594 45.6576C34.5419 46.4891 34.1643 47.3207 33.4873 48.1523C33.1097 48.607 32.628 48.9838 32.0551 49.2826C31.4822 49.5685 31.0916 49.6335 30.8833 49.4646C30.714 49.3216 30.4927 49.1657 30.2323 48.9968C29.9589 48.8149 29.7505 48.672 29.6073 48.542C29.2949 48.2952 29.2688 48.0223 29.4901 47.7365C29.5552 47.6585 29.6594 47.6066 29.7766 47.5936C29.9068 47.5806 30.2193 47.6585 30.727 47.8274C31.2348 47.9963 31.6515 48.0353 31.977 47.9444C32.3025 47.8534 32.5629 47.6715 32.7842 47.3987C33.0576 47.0738 33.1748 46.71 33.1357 46.2943C33.1097 45.8915 32.9144 45.5407 32.5759 45.2678C32.3545 45.0859 32.0811 44.995 31.7556 44.982C31.4301 44.969 30.8182 45.1898 29.9198 45.6056C29.0214 46.0214 28.3314 46.2163 27.8496 46.1643C27.3679 46.1124 26.9382 45.9434 26.5737 45.6446C26.0919 45.2418 25.8706 44.6961 25.9097 43.9685C25.9487 43.2539 26.2091 42.5912 26.7039 41.9936C27.1075 41.4998 27.6023 41.0841 28.1621 40.7462C28.722 40.4214 29.0996 40.3305 29.2949 40.4864C29.412 40.5773 29.5683 40.6943 29.7636 40.8112C29.9589 40.9281 30.1151 41.0321 30.2193 41.123C30.3495 41.227 30.4406 41.3569 30.4797 41.4998C30.5187 41.6428 30.5057 41.7727 30.4276 41.8766C30.3104 42.0196 30.1932 42.0975 30.063 42.0975C29.9458 42.0975 29.7636 42.0455 29.5422 41.9546C29.3209 41.8506 29.1126 41.8117 28.9173 41.8377C28.722 41.8636 28.5006 41.9286 28.2663 42.0455C28.0319 42.1625 27.8106 42.3314 27.6283 42.5523C27.446 42.7861 27.3419 43.059 27.3158 43.3838C27.2898 43.7086 27.3549 43.9555 27.5241 44.0854Z" fill="#8CAD40"/>
</g>
</g>
<defs>
<clipPath id="clip0_1027_97">
<rect width="226" height="225" fill="white"/>
</clipPath>
</defs>
</svg>
