<svg width="80" height="80" viewBox="0 0 80 80" fill="none" xmlns="http://www.w3.org/2000/svg">
<g id="Untitled-1-02">
<g id="eqgSgu_2_">
<g id="Group">
<path id="Vector" d="M52 27.28C52 30.16 52 33.04 52 35.92C52 36.24 52.24 36.64 52.4 36.96C58.56 47.6 64.72 58.24 70.88 68.88C71.28 69.52 71.6 70.16 71.92 70.8C73.6 74.88 71.68 78.56 67.36 79.52C66.4 79.76 65.36 79.84 64.4 79.84C47.76 79.84 31.12 79.76 14.4 79.92C8.16005 79.92 5.84005 75.6 8.56005 70.24C10.64 66.08 12.96 62.08 15.12 57.92C18.88 50.96 22.64 43.92 26.4 36.88C26.64 36.4 26.8 35.84 26.8 35.36C26.88 32.96 26.8 30.56 26.8 28.08C26.8 27.36 26.64 27.12 25.84 26.96C22.96 26.64 21.2 24.64 21.12 21.76C21.12 20.56 21.04 19.28 21.28 18.08C21.68 15.6 23.68 13.84 26.16 13.84C34.96 13.76 43.84 13.76 52.64 13.84C55.2001 13.84 57.2 15.84 57.52 18.4C57.68 19.68 57.68 20.96 57.52 22.16C57.36 24.8 55.52 26.64 52.96 26.96C52.72 27.12 52.4 27.2 52 27.28ZM49.36 24.48C50.48 24.48 51.44 24.48 52.4 24.48C54 24.4 54.96 23.44 55.04 21.84C55.04 21.12 55.04 20.48 55.04 19.76C55.04 17.44 54.16 16.64 51.92 16.64C43.68 16.64 35.52 16.64 27.28 16.64C24.72 16.64 24 17.36 23.92 20C23.76 23.92 24.8 24.72 28.4 24.48C29.28 24.4 29.6 24.72 29.6 25.6C29.52 29.04 29.6 32.48 29.6 36C29.6 36.56 29.44 37.12 29.2 37.6C27.6 40.64 25.92 43.68 24.32 46.72C19.76 54.96 15.36 63.2 10.96 71.44C8.96005 75.2 10.24 77.2 14.4 77.2C31.04 77.2 47.68 77.2 64.4 77.2C65.12 77.2 65.76 77.2 66.48 77.04C68.08 76.72 68.88 75.68 68.64 74.08C68.48 73.04 68.16 72 67.6 71.04C61.76 60.08 55.84 49.12 50 38.16C49.6 37.36 49.36 36.4 49.36 35.6C49.28 32.4 49.36 29.12 49.36 25.92C49.36 25.44 49.36 25.04 49.36 24.48Z" fill="#4E4E4E"/>
<path id="Vector_2" d="M35.5198 10.7198C33.7598 10.7198 32.3198 9.35982 32.3198 7.51982C32.3198 5.75982 33.7598 4.31982 35.5198 4.31982C37.2798 4.31982 38.6398 5.75982 38.7198 7.43982C38.6398 9.27982 37.2798 10.7198 35.5198 10.7198Z" fill="#4E4E4E"/>
<path id="Vector_3" d="M40.48 2.87991C40.48 1.35991 41.6 0.159912 43.12 0.159912C44.64 0.159912 45.92 1.35991 45.92 2.95991C45.92 4.39991 44.64 5.59991 43.2 5.59991C41.68 5.59991 40.48 4.39991 40.48 2.87991Z" fill="#4E4E4E"/>
</g>
</g>
</g>
</svg>
