<svg width="50" height="50" viewBox="0 0 50 50" fill="none" xmlns="http://www.w3.org/2000/svg">
<path d="M26.2925 34.7075C26.1995 34.6146 26.1258 34.5043 26.0754 34.3829C26.0251 34.2615 25.9992 34.1314 25.9992 34C25.9992 33.8686 26.0251 33.7385 26.0754 33.6171C26.1258 33.4957 26.1995 33.3854 26.2925 33.2925L33.5863 26L14 26C13.7348 26 13.4804 25.8947 13.2929 25.7071C13.1054 25.5196 13 25.2652 13 25C13 24.7348 13.1054 24.4804 13.2929 24.2929C13.4804 24.1054 13.7348 24 14 24L33.5863 24L26.2925 16.7075C26.1049 16.5199 25.9995 16.2654 25.9995 16C25.9995 15.7346 26.1049 15.4801 26.2925 15.2925C26.4801 15.1049 26.7346 14.9995 27 14.9995C27.2654 14.9995 27.5199 15.1049 27.7075 15.2925L36.7075 24.2925C36.8005 24.3854 36.8742 24.4957 36.9246 24.6171C36.9749 24.7385 37.0008 24.8686 37.0008 25C37.0008 25.1314 36.9749 25.2615 36.9246 25.3829C36.8742 25.5043 36.8005 25.6146 36.7075 25.7075L27.7075 34.7075C27.6146 34.8005 27.5043 34.8742 27.3829 34.9246C27.2616 34.9749 27.1314 35.0008 27 35.0008C26.8686 35.0008 26.7385 34.9749 26.6171 34.9246C26.4957 34.8742 26.3854 34.8005 26.2925 34.7075Z" fill="#4E4E4E"/>
<circle cx="25" cy="25" r="24" transform="rotate(180 25 25)" stroke="#4E4E4E" stroke-width="2"/>
</svg>
