<svg width="32" height="32" viewBox="0 0 32 32" fill="none" xmlns="http://www.w3.org/2000/svg">
<path fill-rule="evenodd" clip-rule="evenodd" d="M2 16C2 16.2653 2.10535 16.5196 2.29289 16.7071C2.48043 16.8947 2.73478 17 3 17L26.586 17L20.292 23.292C20.1042 23.4798 19.9987 23.7345 19.9987 24C19.9987 24.2656 20.1042 24.5203 20.292 24.708C20.4798 24.8958 20.7344 25.0013 21 25.0013C21.2655 25.0013 21.5202 24.8958 21.708 24.708L29.708 16.708C29.8011 16.6152 29.875 16.5048 29.9254 16.3833C29.9758 16.2618 30.0018 16.1316 30.0018 16C30.0018 15.8685 29.9758 15.7383 29.9254 15.6168C29.875 15.4953 29.8011 15.3849 29.708 15.292L21.708 7.29204C21.615 7.19907 21.5046 7.12531 21.3832 7.075C21.2617 7.02468 21.1315 6.99878 21 6.99878C20.7344 6.99878 20.4798 7.10427 20.292 7.29204C20.1042 7.47982 19.9987 7.73449 19.9987 8.00004C19.9987 8.26559 20.1042 8.52027 20.292 8.70804L26.586 15L3 15C2.73478 15 2.48043 15.1054 2.29289 15.2929C2.10535 15.4805 2 15.7348 2 16Z" fill="black"/>
</svg>
