<svg width="60" height="60" viewBox="0 0 60 60" fill="none" xmlns="http://www.w3.org/2000/svg">
<path d="M30.0125 5C43.82 5 55.0125 16.1925 55.0125 30C55.0125 43.8075 43.82 55 30.0125 55C24.1837 55.0085 18.5366 52.9719 14.055 49.245L13.445 48.7225L15.6975 43.9675C18.9175 47.2677 23.1788 49.3541 27.7603 49.8734C32.3418 50.3926 36.962 49.313 40.8389 46.8171C44.7158 44.3212 47.6112 40.5624 49.0351 36.177C50.459 31.7916 50.324 27.0488 48.6528 22.7515C46.9816 18.4542 43.8769 14.8663 39.8642 12.5952C35.8515 10.324 31.1774 9.50905 26.6329 10.2882C22.0884 11.0674 17.9527 13.3929 14.9258 16.8711C11.8989 20.3492 10.1667 24.7664 10.0225 29.375L10.0125 30H16.2625L9.49751 44.29C6.57054 40.1003 5.0046 35.1109 5.01251 30C5.01251 16.1925 16.205 5 30.0125 5Z" fill="#8EA869"/>
<g clip-path="url(#clip0_1064_618)">
<path d="M31.3324 40.9946L22.7955 30.5845L22.8448 28.5214C26.8514 28.7905 29.9663 28.3772 30.691 24.6836L22.1539 24.6358L23.5356 22.3807L30.3455 22.4763C29.3079 20.3746 26.4543 20.1156 22.0059 20.2699L23.5356 18.0626L37.9946 18.0415L36.5635 20.2214H32.5665C33.297 20.973 33.8317 21.8378 33.8495 22.5721L37.9946 22.5241L36.5635 24.6829L33.8001 24.7309C33.3687 27.9512 30.3329 29.8579 26.4967 30.2959L35.0909 40.9917L31.3327 40.9937L31.3324 40.9946Z" fill="#8EA869" stroke="#8EA869" stroke-width="0.099084"/>
</g>
<defs>
<clipPath id="clip0_1064_618">
<rect width="16" height="23" fill="white" transform="translate(22 18)"/>
</clipPath>
</defs>
</svg>
