<svg width="32" height="32" viewBox="0 0 32 32" fill="none" xmlns="http://www.w3.org/2000/svg">
<g id="ph:arrow-up">
<path id="Vector" d="M14.7075 6.29249C14.8005 6.38536 14.8742 6.49565 14.9246 6.61705C14.9749 6.73845 15.0008 6.86857 15.0008 6.99999C15.0008 7.13141 14.9749 7.26153 14.9246 7.38293C14.8742 7.50433 14.8005 7.61462 14.7075 7.70749L7.41374 15L27 15C27.2652 15 27.5196 15.1053 27.7071 15.2929C27.8946 15.4804 28 15.7348 28 16C28 16.2652 27.8946 16.5196 27.7071 16.7071C27.5196 16.8946 27.2652 17 27 17L7.41374 17L14.7075 24.2925C14.8951 24.4801 15.0005 24.7346 15.0005 25C15.0005 25.2654 14.8951 25.5199 14.7075 25.7075C14.5199 25.8951 14.2654 26.0005 14 26.0005C13.7346 26.0005 13.4801 25.8951 13.2925 25.7075L4.29249 16.7075C4.19952 16.6146 4.12576 16.5043 4.07543 16.3829C4.02511 16.2615 3.99921 16.1314 3.99921 16C3.99921 15.8686 4.02511 15.7385 4.07543 15.6171C4.12576 15.4957 4.19952 15.3854 4.29249 15.2925L13.2925 6.29249C13.3854 6.19952 13.4957 6.12575 13.6171 6.07543C13.7384 6.02511 13.8686 5.99921 14 5.99921C14.1314 5.99921 14.2615 6.02511 14.3829 6.07543C14.5043 6.12575 14.6146 6.19952 14.7075 6.29249Z" fill="#D6D2C9"/>
</g>
</svg>
