<svg width="80" height="80" viewBox="0 0 80 80" fill="none" xmlns="http://www.w3.org/2000/svg">
<g id="Untitled-1-04">
<g id="XlyKGd_2_">
<g id="Group">
<path id="Vector" d="M40.4 5.12012H40.32C40.08 5.12012 39.84 5.12012 39.6 5.12012C21.04 5.12012 5.59997 20.0001 4.87997 38.7201C4.47997 48.2401 7.91997 57.3601 14.56 64.3201C21.2 71.2001 30.08 75.0401 39.6 75.2001C39.68 75.2001 39.84 75.2001 39.92 75.2001C58.88 75.2001 74.56 59.9201 74.96 40.9601C75.2 31.3601 71.6 22.4001 64.96 15.6001C58.4 8.88012 49.44 5.12012 40.4 5.12012ZM71.92 45.9201C69.68 58.2401 60.56 68.3201 48.64 71.4401C45.6 72.2401 42.64 72.6401 39.68 72.6401C32 72.6401 24.72 69.8401 18 64.2401L17.68 64.0001L29.36 52.3201L29.2 52.2401C28.56 51.8401 27.92 51.5201 27.28 51.1201C27.28 51.1201 27.2 51.1201 27.2 51.2001C24 54.3201 20.88 57.5201 17.68 60.6401C17.36 60.9601 17.12 61.2001 16.8 61.5201L16.08 62.2401L15.76 61.9201C10.64 56.4001 7.51997 48.7201 7.35997 40.8001C7.19997 32.1601 10.4 24.0001 16.32 17.7601C22.48 11.2801 30.64 7.68012 39.44 7.60012C39.6 7.60012 39.68 7.60012 39.84 7.60012C47.92 7.60012 55.92 10.6401 61.68 16.0001L62 16.3201L54.64 23.6001L56.72 25.0401L63.84 18.0001L64.08 18.3201C71.12 26.5601 73.76 35.8401 71.92 45.9201Z" fill="#4E4E4E" stroke="#4E4E4E" stroke-width="0.75" stroke-miterlimit="10"/>
<g id="Group_2">
<path id="Vector_2" d="M46 49.7601C45.68 49.7601 45.28 49.7601 44.96 49.7601C41.84 49.5201 39.04 48.4801 36.48 46.4801C35.36 45.6001 34.24 44.6401 33.2 43.6801C32.72 43.2801 32.32 42.8801 31.84 42.4801C30.96 41.6801 30.16 41.0401 29.2 40.5601C28.08 40.0801 26.8 40.0001 25.44 39.8401H25.36C24.16 39.7601 22.8 39.6801 21.52 39.0401C20 38.3201 18.8 36.9601 18.24 35.2801C17.68 33.6001 17.76 31.8401 18.56 30.2401C19.44 28.4001 20.8 26.8001 22.96 25.1201C25.84 22.9601 29.2 21.6001 33.2 21.0401C35.12 20.7201 37.36 20.4001 39.2 20.5601H39.76C42.08 20.6401 44.32 20.7201 46.48 21.2001C51.52 22.3201 55.52 24.8801 58.32 28.8801C59.6 30.6401 60.4 32.5601 60.72 34.4801C61.04 36.4801 60.8 38.5601 59.92 40.5601C59.04 42.8801 57.36 44.8001 54.96 46.6401C52.24 48.8001 49.28 49.7601 46 49.7601ZM38.4 23.0401C36.88 23.0401 35.12 23.2801 33.6 23.5201C30 24.0801 26.96 25.2801 24.4 27.2001C22.56 28.5601 21.44 29.9201 20.72 31.3601C19.76 33.4401 20.56 36.0001 22.56 36.9601C23.44 37.3601 24.4 37.4401 25.52 37.5201H25.6C27.12 37.6001 28.64 37.6801 30.16 38.4001C31.36 38.9601 32.4 39.7601 33.36 40.6401C33.84 41.0401 34.32 41.4401 34.72 41.8401C35.76 42.7201 36.8 43.6801 37.84 44.4801C40 46.1601 42.4 47.0401 45.04 47.2001C48.08 47.4401 50.96 46.5601 53.52 44.7201C55.6 43.2001 56.96 41.6001 57.68 39.7601C58.96 36.4801 58.48 33.3601 56.32 30.3201C53.84 26.8801 50.32 24.5601 45.84 23.6001C43.92 23.2001 41.92 23.1201 39.6 23.0401H39.04C38.88 23.1201 38.64 23.0401 38.4 23.0401ZM46.56 41.0401C45.76 41.0401 44.88 40.8801 44 40.3201C43.52 40.0001 42.08 39.0401 42.16 37.2001C42.24 35.8401 43.04 34.8001 44.4 34.2401C44.96 34.0001 45.52 33.9201 46 33.7601C46.16 33.7601 46.4 33.6801 46.56 33.6801C46.8 33.6001 47.04 33.6801 47.28 33.7601C48.4 33.7601 49.44 34.2401 50.32 34.9601C51.04 35.6001 51.44 36.4801 51.44 37.3601C51.44 38.2401 51.04 39.1201 50.32 39.8401C49.6 40.4801 48.64 40.8801 47.6 40.9601C47.28 40.9601 46.96 41.0401 46.56 41.0401ZM46.56 36.0801C46.48 36.0801 46.48 36.0801 46.4 36.0801C46 36.1601 45.6 36.2401 45.36 36.3201C44.56 36.6401 44.56 37.1201 44.56 37.2801C44.56 37.5201 44.56 37.7601 45.28 38.2401C45.76 38.5601 46.4 38.5601 47.36 38.4801C47.92 38.4801 48.32 38.2401 48.64 37.9201C48.8 37.7601 48.96 37.5201 48.96 37.2801C48.96 36.9601 48.8 36.8001 48.64 36.6401C48.08 36.1601 47.52 36.0001 46.88 36.0001C46.88 36.1601 46.72 36.0801 46.56 36.0801Z" fill="#4E4E4E" stroke="#4E4E4E" stroke-width="0.75" stroke-miterlimit="10"/>
</g>
<g id="Group_3">
<path id="Vector_3" d="M46.4798 58.4C46.0798 58.4 45.7598 58.4 45.3598 58.32C41.1198 58 37.5198 56.4 34.5598 53.76L34.0798 53.36C33.1998 52.56 32.2398 51.68 31.3598 50.8C30.0798 49.52 28.4798 48.8 26.4798 48.48C24.9598 48.24 23.6798 48.08 22.5598 47.84C20.6398 47.44 19.1998 46.24 18.4798 44.48C18.2398 44 18.0798 43.44 18.0798 42.96C17.9998 42.24 17.9998 41.6 17.9198 40.88C17.9198 40.64 17.9198 40.32 17.8398 40.08C17.8398 39.6 18.0798 39.2 18.4798 38.96L18.7198 38.8C19.1998 38.48 19.8398 38.64 20.2398 39.12C20.3198 39.2 20.3998 39.28 20.4798 39.36C20.5598 39.52 20.7198 39.68 20.7998 39.76C21.5998 40.56 22.5598 41.04 23.8398 41.2C24.7998 41.28 25.9198 41.44 26.9598 41.52C28.7998 41.6 30.3998 42.32 31.9998 43.68C32.4798 44.16 33.0398 44.56 33.5198 45.04C34.5598 45.92 35.5998 46.88 36.6398 47.76C38.7198 49.52 41.1198 50.64 43.7598 51.12C47.0398 51.68 50.0798 51.2 53.1198 49.44C55.4398 48.16 57.1998 46.48 58.3998 44.32C58.4798 44.16 58.5598 44.08 58.6398 44C58.7198 43.84 58.8798 43.76 58.9598 43.68L59.0398 43.6C59.4398 43.28 59.9198 43.2 60.3198 43.44C60.7198 43.68 61.0398 44.08 60.9598 44.56C60.9598 44.8 60.9598 45.04 60.9598 45.28C60.9598 45.84 60.8798 46.32 60.7998 46.8C60.2398 50.08 58.4798 52.88 55.5998 55.12C52.6398 57.28 49.5998 58.4 46.4798 58.4ZM20.3998 42.72V42.8C20.3998 43.04 20.4798 43.28 20.6398 43.6C21.1198 44.64 21.9198 45.28 23.0398 45.6C24.0798 45.84 25.2798 46 26.7998 46.24C29.3598 46.56 31.3598 47.52 33.0398 49.2C33.9198 50.08 34.7998 50.88 35.6798 51.68L36.1598 52.08C38.7198 54.4 41.8398 55.68 45.5198 56C48.4798 56.24 51.2798 55.36 53.9998 53.2C55.5998 52 56.7198 50.64 57.4398 49.04C56.4798 50 55.3598 50.8 54.0798 51.52C50.5598 53.52 46.8798 54.16 43.1198 53.52C39.9998 52.96 37.2798 51.68 34.8798 49.68C33.8398 48.8 32.7998 47.84 31.7598 46.96C31.2798 46.56 30.7998 46.08 30.2398 45.68C29.1198 44.72 27.9198 44.16 26.6398 44.08C25.5198 44 24.4798 43.92 23.4398 43.76C22.3998 43.6 21.3598 43.2 20.3998 42.72Z" fill="#4E4E4E" stroke="#4E4E4E" stroke-width="0.75" stroke-miterlimit="10"/>
</g>
</g>
</g>
</g>
</svg>
